<svg width="71" height="69" viewBox="0 0 71 69" fill="none" xmlns="http://www.w3.org/2000/svg">
<g clip-path="url(#clip0)">
<path d="M12.8441 58.9246C8.43762 53.3462 5.85938 46.3146 5.85938 38.6736C5.85938 20.5322 20.5319 5.85962 38.6734 5.85962C50.9552 5.85962 61.6432 12.5631 67.2684 22.5479" stroke="#04136B" stroke-width="6.09403" stroke-miterlimit="10" stroke-linecap="round"/>
<path d="M14.9537 65.2531C7.64083 58.7372 3.04688 49.2211 3.04688 38.6738C3.04688 18.9853 18.9851 3.04712 38.6735 3.04712C49.6896 3.04712 59.5338 8.06297 66.0966 15.8915" stroke="#45D19D" stroke-width="6.09403" stroke-miterlimit="10" stroke-linecap="round"/>
<path d="M19.0801 29.72C24.0491 18.8914 36.8465 14.1099 47.6751 19.0789C58.5038 24.0479 63.2852 36.8454 58.3162 47.674" stroke="#04136B" stroke-width="6.09403" stroke-miterlimit="10" stroke-linecap="round"/>
<path d="M19.6895 23.7667C27.9398 13.2662 43.0812 11.438 53.5816 19.6884C64.0821 27.9388 65.9103 43.0801 57.6599 53.5806" stroke="#45D19D" stroke-width="6.09403" stroke-miterlimit="10" stroke-linecap="round"/>
</g>
<defs>
<clipPath id="clip0">
<rect width="70.3157" height="68.3" fill="white"/>
</clipPath>
</defs>
</svg>
