<svg width="165" height="58" viewBox="0 0 165 58" fill="none" xmlns="http://www.w3.org/2000/svg">
<path fill-rule="evenodd" clip-rule="evenodd" d="M96.2642 25.3934V21.5072L92.4374 17.6886H80.4283V36.9394H92.9884L96.8078 33.0832V28.7835L94.4327 26.8517L96.2642 25.3934ZM90.1592 25.2656H86.4366V22.334H90.1592V25.2656ZM90.5315 32.2939H86.4366V29.0842H90.5315V32.2939ZM63.7809 33.3539V25.0853L67.3322 21.4997H74.971L78.5521 25.0928V33.3614L75.0008 36.947H67.3322L63.7809 33.3539ZM69.7891 32.2564H72.5141V26.1903H69.7891V32.2564ZM47.9523 40.796V35.8349H55.8665V34.7374H50.6549L47.1333 31.1519V25.0932L50.6772 21.5077H61.845V36.2784L57.3779 40.7885L47.9523 40.796ZM53.1639 26.4688V30.0544H55.8963V26.4688H53.1639ZM113.187 21.5077V36.9399H102.265L98.4458 33.0837V21.5077H104.447V31.7081H107.179V21.5077H113.187ZM130.11 36.9394V17.6886H124.102V21.5072H119.188L115.093 25.6415V32.8051L119.188 36.9394H130.11ZM124.08 31.9707H121.101V26.4683H124.08V31.9707ZM147.048 17.6886V36.9394H136.111L132.016 32.8051V25.6415L136.111 21.5072H141.025V17.6886H147.048ZM138.024 31.9707H141.002V26.4683H138.024V31.9707ZM149.214 35.8349V40.796H160.077L164.358 21.5077H158.275L156.913 30.0544H155.766L154.396 21.5077H148.254L151.232 34.7374H156.012L155.818 35.8349H149.214Z" fill="white"/>
<path d="M9.40034 5.00537L8.87774 8.19752C8.60252 9.41485 8.71453 10.6888 9.19783 11.8382C9.25009 11.9569 9.30235 12.0756 9.36114 12.1943V12.2669C9.3636 12.2866 9.3636 12.3065 9.36114 12.3262L12.7515 18.9216C12.8168 19.0403 1.46341 28.0693 1.46341 28.0693L0.980011 31.4329C0.784007 32.3012 0.784007 33.2028 0.980011 34.0711C0.993996 34.1187 1.00491 34.1671 1.01267 34.2162L1.09106 34.4998C1.16262 34.7449 1.24991 34.985 1.35236 35.2187C1.37016 35.2773 1.39199 35.3346 1.41769 35.3901L1.52874 35.6012L3.52767 39.4793C3.55204 39.5219 3.57386 39.5659 3.59299 39.6112L7.95013 48.0268C8.30564 48.7188 8.79352 49.3328 9.38556 49.8331C9.9776 50.3335 10.662 50.7104 11.3993 50.942L15.0378 52.1226L17.0433 56.0072C17.2665 56.4393 17.5718 56.8226 17.9419 57.1354C18.312 57.4482 18.7395 57.6842 19.2 57.83C19.6605 57.9758 20.145 58.0285 20.6257 57.9851C21.1064 57.9416 21.5739 57.8029 22.0014 57.5769L22.6547 57.2339L35.7196 50.355C35.9195 50.2467 36.1097 50.1209 36.2879 49.9791L36.3663 49.9131C36.5089 49.7818 36.64 49.6384 36.7582 49.4844C36.7974 49.4448 36.8236 49.4053 36.8562 49.3657C36.9727 49.2158 37.0775 49.057 37.1698 48.8908C37.209 48.8315 37.2286 48.7721 37.2612 48.7128C37.2939 48.6534 37.3723 48.4621 37.418 48.3368C37.4637 48.2115 37.4833 48.139 37.5095 48.04C37.5356 47.9411 37.5617 47.8488 37.5813 47.7498L37.627 47.4794L38.1954 44.2081L9.40034 5.00537Z" fill="#C81B00"/>
<path d="M30.3563 18.6772H30.291C30.0819 18.5849 29.8729 18.5058 29.6377 18.4332H29.5267C29.3252 18.3702 29.1202 18.3195 28.9126 18.2815H28.7755C28.6481 18.2548 28.5195 18.235 28.39 18.2222C28.3012 18.2124 28.2161 18.1808 28.1421 18.1302C28.0681 18.0796 28.0075 18.0116 27.9654 17.932L20.427 3.20455C19.8944 2.1671 19.0705 1.31141 18.0583 0.744735C17.0462 0.178058 15.8909 -0.0744018 14.7372 0.0189944H14.698C14.5226 0.0330041 14.3481 0.0572274 14.1754 0.0915432H14.1297C13.9513 0.123913 13.7747 0.165742 13.6006 0.216855L13.4438 0.256427L13.2413 0.361953L12.9147 0.474074C12.7514 0.546622 12.5946 0.619171 12.4378 0.704911H12.3921C11.7401 1.06457 11.1616 1.54573 10.6871 2.12291V2.16248C10.6096 2.25478 10.5376 2.35168 10.4715 2.45268L10.2952 2.65713L10.2233 2.77585C9.72665 3.57297 9.42498 4.47795 9.34319 5.41604C9.26141 6.35412 9.40187 7.2984 9.75297 8.17085C9.83004 8.3741 9.91948 8.57234 10.0208 8.76443L13.4111 15.3598C13.4722 15.4808 13.4859 15.6205 13.4496 15.7513C13.4133 15.882 13.3296 15.9942 13.2152 16.0655L13.0911 16.1644C12.9176 16.2698 12.7497 16.3842 12.5881 16.5074L12.4574 16.6063C12.4117 16.6459 12.3725 16.6986 12.3268 16.7448C12.1886 16.8782 12.0578 17.0191 11.9348 17.1669C11.8956 17.2065 11.8499 17.246 11.8107 17.2922C11.7584 17.3516 11.7258 17.4175 11.68 17.4769L11.3991 17.8924C11.3991 17.9452 11.3338 17.9847 11.3012 18.0375V18.0705L11.262 18.1628C11.1448 18.3743 11.0443 18.5949 10.9615 18.8223L10.9223 18.8949C10.9223 18.8949 10.9223 18.8949 10.9223 18.9279C10.9142 18.9553 10.9033 18.9819 10.8896 19.007C10.8603 19.0911 10.81 19.1662 10.7437 19.2251C10.6773 19.284 10.5971 19.3247 10.5107 19.3434L10.0861 19.4753L9.91628 19.5412L9.73337 19.6072C9.53087 19.6863 9.33489 19.7721 9.13892 19.871C8.94295 19.9699 8.8123 20.0557 8.65552 20.1546L8.47914 20.2799L8.21131 20.4778L8.00227 20.6624C7.93695 20.7218 7.86509 20.7746 7.8063 20.8339C7.74751 20.8933 7.65605 20.9856 7.5842 21.0648L7.43395 21.223L7.22491 21.4869L7.10733 21.6386C7.03547 21.7375 6.97668 21.8364 6.91136 21.9353L6.8199 22.0804C6.77417 22.153 6.73498 22.2321 6.69578 22.3047C6.68309 22.3346 6.66779 22.3633 6.65006 22.3904C6.65006 22.4366 6.5978 22.4828 6.5782 22.5355C6.53239 22.6226 6.49308 22.713 6.46062 22.8059C6.46062 22.8059 6.46062 22.8059 6.46062 22.8455L6.40182 22.9774L6.30384 23.1027C6.27448 23.1868 6.22422 23.2619 6.15788 23.3208C6.09155 23.3797 6.01134 23.4204 5.92496 23.4391C5.78124 23.4787 5.63753 23.5314 5.49381 23.5776L5.29784 23.6501L5.1084 23.7227C4.8846 23.8049 4.66638 23.9018 4.45515 24.0129C4.02459 24.2521 3.62521 24.5446 3.26625 24.8835L3.20093 24.9428L2.93963 25.2198L2.78938 25.3979C2.73574 25.4587 2.68558 25.5226 2.63913 25.5892C2.56075 25.6947 2.48236 25.7936 2.4105 25.9057L2.35824 25.9915C1.53194 27.2834 1.23452 28.8487 1.52862 30.3576C1.62207 30.8125 1.76672 31.255 1.95976 31.6767C1.97104 31.7156 1.98637 31.7532 2.00549 31.7888L2.05775 31.9009L2.11001 32.013L4.09587 35.9175L4.15466 36.023L8.51834 44.4651C8.87429 45.1579 9.36309 45.7724 9.95633 46.2729C10.5496 46.7733 11.2354 47.1497 11.974 47.3802L15.606 48.5344L17.6115 52.4191C18.0635 53.2903 18.8395 53.945 19.769 54.2393C20.6986 54.5335 21.7058 54.4434 22.5696 53.9888L23.1445 53.6854L23.2229 53.6524L36.2878 46.7734C37.1512 46.3158 37.7997 45.5312 38.0911 44.5916C38.3825 43.652 38.2931 42.6341 37.8425 41.761L35.8828 37.962C35.8194 37.8476 35.803 37.7126 35.837 37.5861L37.0455 32.5407C37.4237 30.9661 37.2217 29.3064 36.4772 27.8712L33.0999 21.3154C32.4988 20.1544 31.5341 19.2269 30.3563 18.6772Z" fill="#E82728"/>
<path d="M23.6427 23.7023V23.7104L23.6345 23.7023H23.6427Z" fill="white"/>
<path d="M35.8372 42.8231L33.5247 38.3515C33.4329 38.1752 33.4074 37.9714 33.4529 37.7777L34.8443 32.0002C35.0899 30.9681 34.9577 29.8812 34.4719 28.9399L31.0816 22.3446C30.6907 21.592 30.0523 21.0005 29.2761 20.6719C28.4999 20.3433 27.6346 20.298 26.829 20.544L18.3956 4.2667C17.9391 3.4334 17.1778 2.81341 16.2746 2.53922C15.3713 2.26503 14.3977 2.3584 13.5617 2.79936C12.7257 3.24033 12.0937 3.99392 11.8007 4.89909C11.5077 5.80427 11.577 6.78924 11.9938 7.64352L17.0956 17.5365C16.5245 17.4189 15.9337 17.4424 15.3736 17.6052C14.8135 17.7681 14.3008 18.0653 13.8791 18.4716C13.4575 18.8778 13.1394 19.3811 12.9522 19.9384C12.7649 20.4956 12.714 21.0904 12.8038 21.6718C12.2219 21.5063 11.6082 21.4912 11.019 21.6277C10.4298 21.7643 9.88408 22.0483 9.432 22.4535C8.97992 22.8587 8.636 23.3721 8.43186 23.9466C8.22772 24.5211 8.16991 25.1382 8.26374 25.7412C7.59859 25.5525 6.89374 25.5607 6.23306 25.7648C5.57239 25.9689 4.98372 26.3604 4.53708 26.8926C4.09045 27.4249 3.80467 28.0754 3.71374 28.7669C3.62281 29.4584 3.73057 30.1618 4.02418 30.7932C4.04328 30.8406 4.06509 30.8869 4.08951 30.9317L6.13416 34.8889C6.13416 34.9483 6.19296 35.001 6.21909 35.0538C6.2324 35.0721 6.24337 35.0921 6.25175 35.1132L7.14016 36.8411L10.5501 43.4365C10.9922 44.2941 11.7535 44.9393 12.6666 45.2304L16.8866 46.5495C17.0898 46.6158 17.2588 46.7604 17.3569 46.9518L19.6433 51.3773C19.8158 51.7104 20.1122 51.9608 20.4674 52.0733C20.8227 52.1858 21.2076 52.1514 21.5377 51.9775L35.2558 44.7226C35.5801 44.5462 35.8227 44.2482 35.9315 43.8929C36.0402 43.5377 36.0064 43.1535 35.8372 42.8231ZM13.1761 7.01696C12.8972 6.47646 12.8424 5.84623 13.0237 5.2649C13.205 4.68357 13.6076 4.19877 14.143 3.91715C14.6783 3.63553 15.3025 3.58016 15.8783 3.76321C16.4541 3.94627 16.9343 4.35276 17.2132 4.89326L25.6531 21.1244L23.0402 22.4963L21.5965 23.2547L21.2241 22.5424L13.1761 7.01696ZM15.3123 19.0403C15.848 18.7589 16.4722 18.7029 17.0486 18.8846C17.6251 19.0662 18.107 19.4707 18.389 20.0098L20.4272 23.8945L17.1609 25.6224C16.8786 25.7657 16.6496 25.997 16.5077 26.282L15.064 23.4921L14.4108 22.1731C14.2647 21.908 14.1721 21.6163 14.1384 21.3148C14.1046 21.0134 14.1304 20.7082 14.2143 20.4168C14.2981 20.1255 14.4383 19.8538 14.6268 19.6176C14.8152 19.3813 15.0482 19.1851 15.3123 19.0403ZM10.7395 23.103C11.2761 22.8221 11.9009 22.7671 12.4774 22.95C13.054 23.133 13.5354 23.5389 13.8163 24.0791L15.861 28.0363L16.2007 28.6959C16.4107 29.2233 16.4194 29.8107 16.225 30.3443C16.0307 30.8779 15.6471 31.3196 15.1486 31.584C14.6501 31.8483 14.0722 31.9165 13.5268 31.7753C12.9814 31.6341 12.5072 31.2935 12.1963 30.8196L10.4195 27.39L9.81193 26.2094C9.53323 25.6686 9.47778 25.0383 9.6577 24.4563C9.83761 23.8743 10.2383 23.3878 10.7722 23.103H10.7395ZM7.31001 34.2294L5.70302 31.1164L5.27188 30.2788C4.99121 29.7365 4.93539 29.1039 5.11671 28.5201C5.29802 27.9363 5.7016 27.4491 6.23868 27.1658C6.77576 26.8824 7.40234 26.826 7.98057 27.0091C8.55881 27.1921 9.04133 27.5996 9.322 28.1419L9.75314 28.9861L11.027 31.4461L11.3667 32.1057C11.4118 32.1876 11.449 32.2737 11.4777 32.3629C11.5433 32.5324 11.5872 32.7097 11.6084 32.8905C11.668 33.372 11.5755 33.8603 11.3439 34.2855C11.1123 34.7107 10.7535 35.0512 10.3187 35.2582C9.88402 35.4652 9.39562 35.5282 8.92331 35.4382C8.451 35.3482 8.01895 35.1098 7.68889 34.757C7.53746 34.601 7.40977 34.4232 7.31001 34.2294ZM34.6287 43.5486L20.9106 50.8035C20.8984 50.8156 20.8819 50.8223 20.8648 50.8223C20.8477 50.8223 20.8313 50.8156 20.8191 50.8035L18.5328 46.378C18.4034 46.1262 18.226 45.9028 18.0107 45.7206C17.7955 45.5383 17.5466 45.4009 17.2785 45.3162L13.0651 43.9971C12.5002 43.8083 12.0311 43.4034 11.7586 42.8693L8.63609 36.8279C9.44834 36.9967 10.2934 36.8755 11.027 36.485C11.1797 36.4066 11.326 36.3162 11.4646 36.2146C11.5965 36.1137 11.723 36.0059 11.8435 35.8914C11.9334 35.8062 12.0185 35.7159 12.0983 35.621C12.2587 35.4383 12.3969 35.2368 12.5098 35.0208C12.583 34.8862 12.6484 34.7475 12.7058 34.6053C12.7593 34.4628 12.8051 34.3175 12.843 34.17C12.9165 33.8745 12.9537 33.5711 12.954 33.2665C13.5063 33.4752 14.1009 33.5438 14.6856 33.4661C15.2703 33.3885 15.8271 33.167 16.3071 32.8211C16.7871 32.4752 17.1756 32.0156 17.4384 31.4825C17.7012 30.9495 17.8302 30.3595 17.8142 29.7643C18.207 30.1929 18.6857 30.5322 19.2185 30.7597C19.7512 30.9871 20.3258 31.0974 20.904 31.0834C21.9362 31.0602 22.9472 30.7841 23.8502 30.2788L24.4446 29.9622L25.7511 29.3027L25.9732 29.7313C24.8104 30.9383 23.3602 34.6911 23.1316 36.3663C23.1178 36.4535 23.1214 36.5426 23.1424 36.6284C23.1633 36.7142 23.2011 36.7948 23.2535 36.8656C23.3059 36.9363 23.3718 36.9957 23.4474 37.0402C23.523 37.0847 23.6066 37.1135 23.6934 37.1247C23.834 37.1487 23.9786 37.1255 24.1049 37.0588C24.1988 37.0111 24.2799 36.9412 24.3413 36.8551C24.4027 36.769 24.4426 36.6692 24.4577 36.5641C24.6994 35.0208 26.1104 31.4 27.2536 30.3645C27.3652 30.2659 27.4403 30.1318 27.4664 29.9843C27.4925 29.8369 27.4681 29.6849 27.3973 29.5533L27.0968 28.9663L26.6395 28.0759C26.6008 27.9973 26.5469 27.9273 26.481 27.87C26.4151 27.8127 26.3385 27.7692 26.2558 27.7422C26.173 27.7152 26.0858 27.7051 25.9991 27.7126C25.9124 27.72 25.8281 27.7449 25.7511 27.7857L25.6531 27.8385L23.824 28.8014L23.2557 29.1048C22.6744 29.4274 22.0386 29.6377 21.3809 29.7248H21.1784C20.7181 29.7728 20.2531 29.7065 19.8239 29.5318C19.3947 29.3571 19.0143 29.0792 18.7157 28.7223L18.585 28.564C17.8142 27.6208 17.6248 27.0602 17.6639 26.8888C17.6639 26.8888 17.6639 26.8558 17.7358 26.8228L19.6955 25.7939L21.0804 25.0816L23.615 23.7626L26.7963 22.0873C27.0618 21.9474 27.352 21.8616 27.6503 21.8349C27.9487 21.8082 28.2493 21.8411 28.535 21.9318C28.8207 22.0224 29.086 22.169 29.3156 22.3632C29.5452 22.5574 29.7346 22.7953 29.8731 23.0634L33.2634 29.6192C33.5962 30.2497 33.6957 30.9791 33.5443 31.677L32.1856 37.4611C32.0609 37.9701 32.126 38.5077 32.3685 38.9714L34.681 43.4497C34.6866 43.4594 34.6896 43.4704 34.6898 43.4816C34.69 43.4928 34.6874 43.5039 34.6821 43.5138C34.6769 43.5237 34.6692 43.5321 34.6599 43.5382C34.6506 43.5443 34.6398 43.5479 34.6287 43.5486Z" fill="white"/>
</svg>
