<svg width="54" height="83" viewBox="0 0 54 83" fill="none" xmlns="http://www.w3.org/2000/svg">
<path d="M12.1316 8.0127L11.3916 12.5107C11.0018 14.2261 11.1604 16.0212 11.8448 17.6408C11.9188 17.808 11.9928 17.9753 12.0761 18.1426V18.2448C12.0796 18.2726 12.0796 18.3007 12.0761 18.3285L16.8769 27.622C16.9694 27.7893 0.89267 40.5121 0.89267 40.5121L0.208161 45.2518C-0.069387 46.4752 -0.069387 47.7457 0.208161 48.9692C0.227964 49.0362 0.243413 49.1045 0.254411 49.1736L0.365413 49.5732C0.466745 49.9186 0.590342 50.257 0.735418 50.5862C0.760625 50.6688 0.791533 50.7496 0.827919 50.8279L0.985172 51.1252L3.81571 56.5898C3.85023 56.6499 3.88112 56.7119 3.90821 56.7757L10.078 68.6342C10.5815 69.6093 11.2723 70.4744 12.1107 71.1795C12.949 71.8845 13.9182 72.4156 14.9621 72.7419L20.1144 74.4055L22.9542 79.8793C23.2702 80.4881 23.7026 81.0284 24.2267 81.4691C24.7507 81.9098 25.3561 82.2424 26.0082 82.4478C26.6603 82.6533 27.3463 82.7275 28.027 82.6663C28.7077 82.6051 29.3696 82.4097 29.9751 82.0912L30.9001 81.6079L49.4003 71.9148C49.6835 71.7622 49.9528 71.585 50.2051 71.3851L50.3161 71.2921C50.518 71.1072 50.7037 70.9051 50.8711 70.6881C50.9266 70.6323 50.9636 70.5765 51.0099 70.5208C51.1747 70.3095 51.3232 70.0858 51.4539 69.8517C51.5094 69.768 51.5371 69.6844 51.5834 69.6007C51.6296 69.5171 51.7406 69.2476 51.8054 69.071C51.8701 68.8944 51.8979 68.7922 51.9349 68.6528C51.9719 68.5134 52.0089 68.3833 52.0366 68.2439L52.1014 67.8628L52.9061 63.2533L12.1316 8.0127Z" fill="#C81B00"/>
<path d="M41.8095 27.2784H41.717C41.421 27.1483 41.125 27.0368 40.792 26.9346H40.6348C40.3495 26.8457 40.0591 26.7744 39.7653 26.7208H39.571C39.3907 26.6832 39.2085 26.6552 39.0252 26.6372C38.8995 26.6233 38.7789 26.5789 38.6742 26.5076C38.5694 26.4363 38.4835 26.3404 38.424 26.2282L27.7493 5.47585C26.9952 4.01398 25.8285 2.80824 24.3952 2.00973C22.962 1.21123 21.3261 0.855488 19.6925 0.987092H19.637C19.3885 1.00683 19.1415 1.04097 18.897 1.08932H18.8322C18.5795 1.13493 18.3294 1.19387 18.083 1.2659L17.8609 1.32166L17.5742 1.47035L17.1117 1.62834C16.8804 1.73057 16.6584 1.8328 16.4364 1.95362H16.3717C15.4485 2.46041 14.6293 3.13841 13.9574 3.95172V4.00748C13.8476 4.13753 13.7457 4.27408 13.6521 4.41639L13.4024 4.70449L13.3006 4.87178C12.5974 5.99499 12.1702 7.2702 12.0544 8.59206C11.9386 9.91392 12.1375 11.2445 12.6346 12.4739C12.7438 12.7603 12.8704 13.0396 13.0139 13.3103L17.8147 22.6038C17.9011 22.7743 17.9206 22.9712 17.8692 23.1554C17.8178 23.3396 17.6993 23.4977 17.5372 23.5982L17.3614 23.7376C17.1158 23.886 16.878 24.0473 16.6492 24.2208L16.4642 24.3603C16.3994 24.416 16.3439 24.4904 16.2792 24.5554C16.0836 24.7434 15.8983 24.942 15.7242 25.1502C15.6687 25.206 15.6039 25.2617 15.5484 25.3268C15.4744 25.4104 15.4282 25.5034 15.3634 25.587L14.9657 26.1725C14.9657 26.2468 14.8732 26.3026 14.8269 26.3769V26.4234L14.7714 26.5535C14.6055 26.8516 14.4632 27.1623 14.3459 27.4829L14.2904 27.5851C14.2904 27.5851 14.2904 27.5851 14.2904 27.6316C14.279 27.6703 14.2635 27.7077 14.2441 27.7431C14.2026 27.8616 14.1314 27.9674 14.0375 28.0504C13.9435 28.1334 13.83 28.1908 13.7076 28.2171L13.1064 28.4029L12.8659 28.4959L12.6069 28.5888C12.3201 28.7003 12.0426 28.8211 11.7651 28.9605C11.4876 29.0999 11.3026 29.2208 11.0806 29.3602L10.8309 29.5367L10.4516 29.8155L10.1556 30.0758C10.0631 30.1594 9.96134 30.2337 9.87809 30.3174C9.79484 30.401 9.66534 30.5311 9.56358 30.6427L9.35083 30.8657L9.05483 31.2374L8.88832 31.4512C8.78657 31.5906 8.70332 31.73 8.61082 31.8694L8.48132 32.0739C8.41657 32.1761 8.36107 32.2876 8.30557 32.3898C8.2876 32.432 8.26593 32.4724 8.24082 32.5107C8.24082 32.5757 8.16681 32.6408 8.13906 32.7151C8.07419 32.8378 8.01854 32.9651 7.97256 33.0961C7.97256 33.0961 7.97256 33.0961 7.97256 33.1519L7.88931 33.3378L7.75056 33.5144C7.70898 33.6329 7.63782 33.7387 7.54388 33.8217C7.44995 33.9047 7.33638 33.9621 7.21405 33.9883C7.01055 34.0441 6.80704 34.1184 6.60354 34.1835L6.32604 34.2857L6.05779 34.3879C5.74087 34.5038 5.43187 34.6404 5.13277 34.7969C4.52308 35.134 3.95755 35.546 3.44925 36.0236L3.35675 36.1072L2.98674 36.4976L2.77399 36.7485C2.69803 36.8342 2.627 36.9242 2.56124 37.018C2.45023 37.1667 2.33923 37.3061 2.23748 37.4641L2.16348 37.5849C0.99342 39.4053 0.572261 41.611 0.988715 43.7372C1.12104 44.3781 1.32588 45.0017 1.59922 45.5959C1.61519 45.6507 1.6369 45.7037 1.66397 45.7539L1.73797 45.9119L1.81198 46.0699L4.62401 51.5716L4.70727 51.7203L10.8864 63.616C11.3904 64.5923 12.0825 65.4582 12.9226 66.1634C13.7626 66.8686 14.7338 67.399 15.7797 67.7237L20.9227 69.3501L23.7625 74.824C24.4026 76.0517 25.5013 76.9741 26.8176 77.3888C28.1339 77.8035 29.5602 77.6765 30.7834 77.0358L31.5974 76.6083L31.7084 76.5619L50.2086 66.8687C51.4313 66.2238 52.3496 65.1183 52.7622 63.7943C53.1749 62.4703 53.0483 61.036 52.4102 59.8057L49.6351 54.4526C49.5454 54.2913 49.5222 54.1012 49.5704 53.9229L51.2817 46.8134C51.8172 44.5947 51.5311 42.256 50.4769 40.2336L45.6946 30.9958C44.8433 29.3599 43.4774 28.0529 41.8095 27.2784Z" fill="#E82728"/>
<path d="M32.2976 34.3595V34.368L32.2891 34.3595H32.2976Z" fill="white"/>
<path d="M49.5673 61.3016L46.2928 55.0006C46.1628 54.7523 46.1266 54.4651 46.191 54.1921L48.1613 46.0509C48.5091 44.5967 48.3218 43.0652 47.634 41.7388L42.8332 32.4453C42.2797 31.3848 41.3757 30.5514 40.2766 30.0883C39.1775 29.6252 37.9522 29.5615 36.8114 29.9081L24.8695 6.97178C24.223 5.79757 23.1451 4.92394 21.8661 4.53759C20.587 4.15123 19.2083 4.28279 18.0245 4.90416C16.8408 5.52552 15.9458 6.5874 15.5309 7.86288C15.1161 9.13836 15.2142 10.5263 15.8043 11.7301L23.0287 25.6703C22.22 25.5045 21.3834 25.5377 20.5903 25.7671C19.7972 25.9965 19.0711 26.4154 18.474 26.9878C17.877 27.5603 17.4266 28.2695 17.1615 29.0547C16.8963 29.84 16.8242 30.678 16.9513 31.4973C16.1274 31.2641 15.2583 31.2427 14.424 31.4352C13.5897 31.6277 12.8169 32.0278 12.1768 32.5988C11.5366 33.1697 11.0496 33.8932 10.7606 34.7028C10.4715 35.5123 10.3896 36.3818 10.5225 37.2314C9.58062 36.9655 8.58253 36.9771 7.64701 37.2647C6.71148 37.5524 5.87789 38.104 5.24545 38.854C4.61301 39.6039 4.20833 40.5206 4.07957 41.495C3.95081 42.4694 4.1034 43.4605 4.51917 44.3502C4.54621 44.417 4.57709 44.4822 4.61167 44.5454L7.50696 50.1215C7.50696 50.2051 7.59021 50.2795 7.62721 50.3538C7.64607 50.3797 7.66161 50.4078 7.67346 50.4375L8.93148 52.8724L13.7601 62.1659C14.3861 63.3743 15.4641 64.2835 16.7571 64.6937L22.7327 66.5524C23.0204 66.6458 23.2597 66.8495 23.3987 67.1193L26.6362 73.3553C26.8805 73.8247 27.3002 74.1774 27.8033 74.336C28.3063 74.4946 28.8514 74.446 29.3188 74.201L48.7441 63.9781C49.2032 63.7295 49.5468 63.3097 49.7008 62.8091C49.8547 62.3084 49.8068 61.7671 49.5673 61.3016ZM17.4786 10.8472C17.0836 10.0856 17.006 9.19748 17.2627 8.37834C17.5194 7.55919 18.0896 6.87606 18.8476 6.47923C19.6057 6.08239 20.4896 6.00437 21.3049 6.26231C22.1203 6.52026 22.8002 7.09304 23.1952 7.85466L35.1464 30.726L31.4463 32.659L29.402 33.7278L28.8748 32.7241L17.4786 10.8472ZM20.5034 27.7892C21.262 27.3927 22.1459 27.3138 22.9622 27.5698C23.7784 27.8257 24.4608 28.3957 24.8602 29.1554L27.7463 34.6292L23.1212 37.0641C22.7214 37.266 22.3971 37.5919 22.1962 37.9935L20.1519 34.0623L19.2269 32.2036C19.02 31.8301 18.8889 31.419 18.8411 30.9943C18.7934 30.5695 18.8299 30.1394 18.9486 29.7289C19.0673 29.3184 19.2658 28.9356 19.5327 28.6027C19.7996 28.2697 20.1295 27.9933 20.5034 27.7892ZM14.0283 33.514C14.788 33.1182 15.6728 33.0407 16.4892 33.2985C17.3056 33.5562 17.9873 34.1282 18.3851 34.8895L21.2804 40.4656L21.7614 41.3949C22.0589 42.1382 22.0711 42.9659 21.7959 43.7177C21.5207 44.4695 20.9776 45.092 20.2717 45.4645C19.5658 45.837 18.7475 45.9331 17.9751 45.7341C17.2028 45.5351 16.5314 45.0552 16.0911 44.3874L13.575 39.5548L12.7148 37.8913C12.3201 37.1291 12.2416 36.2411 12.4964 35.421C12.7511 34.6009 13.3185 33.9153 14.0746 33.514H14.0283ZM9.17198 49.1922L6.89645 44.8056L6.28594 43.6253C5.88851 42.8613 5.80947 41.9699 6.06621 41.1472C6.32295 40.3246 6.89444 39.6381 7.65496 39.2388C8.41548 38.8395 9.30273 38.7601 10.1215 39.0181C10.9403 39.276 11.6236 39.8502 12.021 40.6143L12.6315 41.8038L14.4353 45.2703L14.9163 46.1996C14.9803 46.3151 15.0329 46.4365 15.0736 46.5621C15.1665 46.801 15.2287 47.0508 15.2586 47.3056C15.3431 47.9841 15.212 48.6721 14.884 49.2713C14.5561 49.8704 14.048 50.3501 13.4324 50.6419C12.8169 50.9336 12.1253 51.0223 11.4565 50.8955C10.7877 50.7687 10.1759 50.4327 9.70849 49.9356C9.49406 49.7158 9.31326 49.4653 9.17198 49.1922ZM47.8561 62.3239L28.4308 72.5467C28.4135 72.5637 28.3902 72.5733 28.366 72.5733C28.3418 72.5733 28.3186 72.5637 28.3013 72.5467L25.0637 66.3108C24.8805 65.956 24.6293 65.6412 24.3245 65.3844C24.0197 65.1276 23.6673 64.9339 23.2877 64.8145L17.3214 62.9558C16.5214 62.6898 15.8572 62.1192 15.4713 61.3666L11.0498 52.8538C12.1999 53.0915 13.3966 52.9207 14.4353 52.3705C14.6515 52.26 14.8587 52.1326 15.0551 51.9895C15.2418 51.8474 15.4209 51.6954 15.5916 51.5341C15.7189 51.414 15.8393 51.2868 15.9523 51.1531C16.1795 50.8956 16.3752 50.6117 16.5351 50.3074C16.6387 50.1177 16.7313 49.9222 16.8126 49.7219C16.8884 49.5211 16.9532 49.3164 17.0068 49.1085C17.1109 48.6922 17.1637 48.2646 17.1641 47.8353C17.9461 48.1295 18.7881 48.2261 19.6161 48.1167C20.444 48.0072 21.2325 47.6951 21.9121 47.2077C22.5918 46.7204 23.1419 46.0727 23.5141 45.3216C23.8862 44.5705 24.0689 43.7391 24.0462 42.9005C24.6025 43.5044 25.2803 43.9825 26.0347 44.303C26.7891 44.6234 27.6027 44.7789 28.4215 44.7592C29.883 44.7265 31.3147 44.3374 32.5933 43.6253L33.4351 43.1793L35.2851 42.2499L35.5996 42.854C33.9531 44.5547 31.8996 49.8427 31.5758 52.2032C31.5562 52.3262 31.5614 52.4518 31.591 52.5726C31.6207 52.6935 31.6742 52.8071 31.7484 52.9068C31.8226 53.0065 31.916 53.0902 32.023 53.1529C32.13 53.2156 32.2484 53.2561 32.3713 53.272C32.5705 53.3058 32.7751 53.2731 32.9541 53.1791C33.087 53.1118 33.2018 53.0134 33.2888 52.892C33.3757 52.7707 33.4323 52.63 33.4536 52.4821C33.7958 50.3074 35.7939 45.2052 37.4126 43.7462C37.5707 43.6072 37.677 43.4182 37.714 43.2105C37.751 43.0027 37.7165 42.7885 37.6161 42.6031L37.1906 41.7759L36.5431 40.5213C36.4883 40.4105 36.4119 40.3119 36.3186 40.2311C36.2253 40.1504 36.1169 40.0892 35.9997 40.0511C35.8825 40.013 35.759 39.9988 35.6363 40.0093C35.5135 40.0199 35.3942 40.0549 35.2851 40.1124L35.1464 40.1868L32.5563 41.5436L31.7516 41.9711C30.9284 42.4257 30.0281 42.722 29.0968 42.8447H28.81C28.1582 42.9123 27.4998 42.819 26.892 42.5728C26.2843 42.3266 25.7456 41.935 25.3227 41.4321L25.1377 41.209C24.0462 39.8801 23.7779 39.0901 23.8335 38.8485C23.8335 38.8485 23.8334 38.802 23.9352 38.7556L26.7102 37.3058L28.6713 36.3021L32.2603 34.4434L36.7651 32.0828C37.1411 31.8856 37.552 31.7647 37.9745 31.7271C38.3969 31.6895 38.8226 31.7359 39.2272 31.8636C39.6318 31.9913 40.0074 32.1979 40.3325 32.4715C40.6576 32.7451 40.9259 33.0804 41.122 33.4583L45.9228 42.696C46.3939 43.5844 46.5349 44.6123 46.3205 45.5956L44.3965 53.746C44.22 54.4633 44.3122 55.2207 44.6555 55.8742L47.93 62.1845C47.938 62.1982 47.9423 62.2136 47.9425 62.2295C47.9428 62.2453 47.9391 62.2609 47.9317 62.2749C47.9243 62.2888 47.9134 62.3006 47.9002 62.3092C47.887 62.3178 47.8718 62.3228 47.8561 62.3239Z" fill="white"/>
</svg>
