<svg width="71" height="23" viewBox="0 0 71 23" fill="none" xmlns="http://www.w3.org/2000/svg">
<path opacity="0.5" fill-rule="evenodd" clip-rule="evenodd" d="M51.3837 0.941552C50.2544 0.494073 48.4632 0 46.2483 0C40.5941 0 36.6125 3.01134 36.5881 7.31665C36.5411 10.4931 39.4388 12.2574 41.6061 13.3165C43.8212 14.3988 44.5742 15.1052 44.5742 16.0699C44.5517 17.5515 42.7842 18.2344 41.1358 18.2344C38.8499 18.2344 37.6251 17.8823 35.7637 17.058L35.0098 16.7047L34.2086 21.6691C35.5514 22.2802 38.0255 22.8224 40.5941 22.8462C46.6018 22.8462 50.513 19.8814 50.5594 15.2934C50.5822 12.7758 49.0521 10.8468 45.7533 9.27043C43.7508 8.25851 42.5244 7.57619 42.5244 6.54083C42.5479 5.59959 43.5617 4.63552 45.8222 4.63552C47.6836 4.58831 49.0512 5.03516 50.0872 5.48233L50.6051 5.71717L51.3837 0.941552ZM30.6281 22.5167H24.9025L28.4837 0.401031H34.209L30.6281 22.5167ZM61.2794 8.49412C61.2794 8.49412 59.465 13.4114 58.9935 14.6819H63.7525C63.5171 13.5762 62.4328 8.28242 62.4328 8.28242L62.0327 6.3768C61.8642 6.86755 61.6205 7.54226 61.4561 7.99729C61.3447 8.3057 61.2697 8.51319 61.2794 8.49412ZM61.6322 0.401031H66.061L70.6801 22.5164H65.3787C65.3787 22.5164 64.8599 19.9754 64.6955 19.1989H57.3444L56.1427 22.5164H50.135L58.6397 2.23598C59.2289 0.800667 60.2665 0.401031 61.6322 0.401031ZM20.1203 0.401031L14.5131 15.4818L13.9003 12.4233C13.9 12.4221 13.8997 12.421 13.8993 12.4198L11.8976 2.26006C11.5679 0.847573 10.5548 0.447624 9.30614 0.401031H0.0942414L0 0.847885C2.24682 1.42172 4.25639 2.24863 6.01718 3.27678L11.1204 22.4933H17.175L26.1746 0.401031H20.1203Z" fill="white"/>
</svg>
