<svg width="25" height="17" viewBox="0 0 25 17" fill="none" xmlns="http://www.w3.org/2000/svg">
<path d="M25 6.01969C25 6.981 23.9917 7.80298 22.8125 7.80298H17.937C18.7348 8.49666 18.8328 9.82796 17.6294 10.6897C18.327 11.6186 17.7342 12.847 16.8262 13.2253C17.2644 15.2249 15.7546 16.125 13.2812 16.125C13.1472 16.125 12.633 16.1167 12.5 16.1171C9.47407 16.1239 8.74541 14.853 6.45845 14.558C5.88848 14.4845 5.46875 14.0742 5.46875 13.5935V6.61414L5.46885 6.61409C5.46938 5.86678 5.98677 5.15377 6.85869 4.83004C8.26914 4.30131 11.5175 2.83468 12.1094 1.68376C12.4901 0.943441 13.1535 0.500326 14.0625 0.5C15.7335 0.499431 16.8824 1.92814 16.2167 3.22249C16.0418 3.56262 15.8109 3.9008 15.5257 4.23641H22.8125C23.9575 4.23641 25 5.07231 25 6.01969ZM4.6875 6.03385V13.8464C4.6875 14.3857 4.16284 14.8229 3.51562 14.8229H1.17188C0.524658 14.8229 0 14.3857 0 13.8464V6.03385C0 5.49451 0.524658 5.05729 1.17188 5.05729H3.51562C4.16284 5.05729 4.6875 5.49451 4.6875 6.03385ZM3.32031 12.8698C3.32031 12.4203 2.88311 12.056 2.34375 12.056C1.80439 12.056 1.36719 12.4203 1.36719 12.8698C1.36719 13.3193 1.80439 13.6836 2.34375 13.6836C2.88311 13.6836 3.32031 13.3193 3.32031 12.8698Z" fill="#FB8B01"/>
</svg>
