<svg width="25" height="25" viewBox="0 0 25 25" fill="none" xmlns="http://www.w3.org/2000/svg">
<rect x="6.63965" y="7.28955" width="13.4643" height="10.8006" fill="white"/>
<path d="M24.2084 7.10777C23.9358 6.08129 23.1326 5.27287 22.1128 4.99852C20.2642 4.5 12.8519 4.5 12.8519 4.5C12.8519 4.5 5.43954 4.5 3.59097 4.99852C2.57114 5.27292 1.76793 6.08129 1.49531 7.10777C1 8.96832 1 12.8502 1 12.8502C1 12.8502 1 16.732 1.49531 18.5926C1.76793 19.6191 2.57114 20.3938 3.59097 20.6681C5.43954 21.1667 12.8519 21.1667 12.8519 21.1667C12.8519 21.1667 20.2642 21.1667 22.1128 20.6681C23.1326 20.3938 23.9358 19.6191 24.2084 18.5926C24.7037 16.732 24.7037 12.8502 24.7037 12.8502C24.7037 12.8502 24.7037 8.96832 24.2084 7.10777ZM10.4276 16.3746V9.32574L16.6229 12.8503L10.4276 16.3746Z" fill="#FF0000"/>
</svg>
