<svg width="65" height="44" viewBox="0 0 65 44" fill="none" xmlns="http://www.w3.org/2000/svg">
<rect x="1" y="1" width="63" height="42" rx="9" fill="#0620B3"/>
<path d="M35 18H57" stroke="white" stroke-width="2" stroke-linecap="round"/>
<path d="M35 30H57" stroke="white" stroke-width="2" stroke-linecap="round"/>
<path d="M35 24H46" stroke="white" stroke-width="2" stroke-linecap="round"/>
<path d="M52 24L57 24" stroke="white" stroke-width="2" stroke-linecap="round"/>
<path d="M2 9H64" stroke="white" stroke-width="2" stroke-linecap="round"/>
<path d="M26 35V33C26 31.9391 25.5786 30.9217 24.8284 30.1716C24.0783 29.4214 23.0609 29 22 29H14C12.9391 29 11.9217 29.4214 11.1716 30.1716C10.4214 30.9217 10 31.9391 10 33V35" stroke="white" stroke-width="2" stroke-linecap="round" stroke-linejoin="round"/>
<path d="M18 25C20.2091 25 22 23.2091 22 21C22 18.7909 20.2091 17 18 17C15.7909 17 14 18.7909 14 21C14 23.2091 15.7909 25 18 25Z" stroke="white" stroke-width="2" stroke-linecap="round" stroke-linejoin="round"/>
<rect x="1" y="1" width="63" height="42" rx="9" stroke="white" stroke-width="2"/>
</svg>
