<svg width="30" height="30" viewBox="0 0 30 30" fill="none" xmlns="http://www.w3.org/2000/svg">
<path d="M14.0969 2.02788C14.4586 1.26708 15.5414 1.26708 15.9031 2.02789L19.407 9.3973C19.5496 9.69721 19.8317 9.90676 20.1601 9.95659L28.0574 11.155C28.8656 11.2776 29.1932 12.2656 28.6184 12.8468L22.8588 18.6709C22.6334 18.8987 22.5309 19.2208 22.5832 19.537L23.9357 27.7241C24.0715 28.5463 23.2013 29.1641 22.4699 28.7648L15.4792 24.9482C15.1805 24.7851 14.8195 24.7851 14.5208 24.9482L7.53012 28.7648C6.79875 29.1641 5.92847 28.5463 6.06429 27.7241L7.41684 19.537C7.46908 19.2208 7.36659 18.8987 7.14124 18.6709L1.38161 12.8468C0.806781 12.2656 1.13437 11.2776 1.94261 11.155L9.83995 9.95659C10.1683 9.90676 10.4504 9.69721 10.593 9.3973L14.0969 2.02788Z" fill="#45D19D" stroke="#121212" stroke-width="2" stroke-linecap="round" stroke-linejoin="round"/>
</svg>
