<svg width="23" height="23" viewBox="0 0 23 23" fill="none" xmlns="http://www.w3.org/2000/svg">
<path d="M5.8322 22.9187C4.46438 22.8565 3.72134 22.6288 3.22712 22.4361C2.57226 22.1811 2.10539 21.8776 1.6139 21.3868C1.12242 20.896 0.81823 20.4291 0.564627 19.7742C0.371861 19.28 0.144233 18.537 0.0820281 17.1692C0.0136714 15.6906 0 15.247 0 11.501C0 7.75507 0.0150385 7.31212 0.0813445 5.8322C0.143549 4.46438 0.372544 3.72271 0.563943 3.22712C0.818914 2.57226 1.1231 2.10539 1.61322 1.61322C2.10402 1.12242 2.5709 0.817547 3.22644 0.563943C3.72066 0.371177 4.4637 0.143549 5.83152 0.0813445C7.31076 0.0136714 7.75507 0 11.4997 0C15.2456 0 15.6886 0.0150385 17.1685 0.0813445C18.5363 0.143549 19.278 0.372544 19.7736 0.563943C20.4284 0.817547 20.8953 1.12242 21.3868 1.61322C21.8783 2.10402 22.1811 2.57158 22.4361 3.22644C22.6288 3.72066 22.8565 4.4637 22.9187 5.83152C22.9863 7.31144 23 7.75439 23 11.5003C23 15.2449 22.9863 15.6892 22.9187 17.1692C22.8565 18.537 22.6275 19.28 22.4361 19.7742C22.1811 20.4291 21.8776 20.896 21.3868 21.3868C20.896 21.8776 20.4284 22.1811 19.7736 22.4361C19.2793 22.6288 18.5363 22.8565 17.1685 22.9187C15.6899 22.9863 15.2456 23 11.4997 23C7.75507 23 7.31076 22.987 5.8322 22.9187Z" fill="url(#paint0_radial)"/>
<path d="M5.8322 22.9187C4.46438 22.8565 3.72134 22.6288 3.22712 22.4361C2.57226 22.1811 2.10539 21.8776 1.6139 21.3868C1.12242 20.896 0.81823 20.4291 0.564627 19.7742C0.371861 19.28 0.144233 18.537 0.0820281 17.1692C0.0136714 15.6906 0 15.247 0 11.501C0 7.75507 0.0150385 7.31212 0.0813445 5.8322C0.143549 4.46438 0.372544 3.72271 0.563943 3.22712C0.818914 2.57226 1.1231 2.10539 1.61322 1.61322C2.10402 1.12242 2.5709 0.817547 3.22644 0.563943C3.72066 0.371177 4.4637 0.143549 5.83152 0.0813445C7.31076 0.0136714 7.75507 0 11.4997 0C15.2456 0 15.6886 0.0150385 17.1685 0.0813445C18.5363 0.143549 19.278 0.372544 19.7736 0.563943C20.4284 0.817547 20.8953 1.12242 21.3868 1.61322C21.8783 2.10402 22.1811 2.57158 22.4361 3.22644C22.6288 3.72066 22.8565 4.4637 22.9187 5.83152C22.9863 7.31144 23 7.75439 23 11.5003C23 15.2449 22.9863 15.6892 22.9187 17.1692C22.8565 18.537 22.6275 19.28 22.4361 19.7742C22.1811 20.4291 21.8776 20.896 21.3868 21.3868C20.896 21.8776 20.4284 22.1811 19.7736 22.4361C19.2793 22.6288 18.5363 22.8565 17.1685 22.9187C15.6899 22.9863 15.2456 23 11.4997 23C7.75507 23 7.31076 22.987 5.8322 22.9187Z" fill="url(#paint1_radial)"/>
<path d="M8.67732 11.549C8.67732 9.97603 9.9521 8.70056 11.5251 8.70056C13.098 8.70056 14.3735 9.97603 14.3735 11.549C14.3735 13.1219 13.098 14.3974 11.5251 14.3974C9.9521 14.3974 8.67732 13.1219 8.67732 11.549ZM7.13752 11.549C7.13752 13.9722 9.10181 15.9365 11.5251 15.9365C13.9483 15.9365 15.9126 13.9722 15.9126 11.549C15.9126 9.12574 13.9483 7.16144 11.5251 7.16144C9.10181 7.16144 7.13758 9.1256 7.13758 11.549H7.13752ZM15.061 6.98747C15.0609 7.19027 15.121 7.38853 15.2336 7.5572C15.3462 7.72586 15.5063 7.85735 15.6936 7.93503C15.8809 8.01271 16.0871 8.0331 16.286 7.99361C16.4849 7.95413 16.6677 7.85655 16.8111 7.71321C16.9546 7.56987 17.0523 7.38721 17.0919 7.18832C17.1316 6.98944 17.1114 6.78327 17.0338 6.59588C16.9563 6.40849 16.8249 6.2483 16.6564 6.13556C16.4878 6.02283 16.2896 5.96261 16.0868 5.96253H16.0864C15.8145 5.96266 15.5539 6.07067 15.3616 6.26285C15.1694 6.45502 15.0613 6.71564 15.061 6.98747ZM8.07305 18.5042C7.23998 18.4662 6.78719 18.3274 6.48628 18.2102C6.08735 18.0549 5.80271 17.8699 5.50345 17.5711C5.20418 17.2722 5.01893 16.9879 4.86431 16.5889C4.74701 16.2882 4.60825 15.8352 4.57038 15.0022C4.52895 14.1015 4.52068 13.8309 4.52068 11.5491C4.52068 9.26731 4.52964 8.9975 4.57038 8.09608C4.60832 7.26302 4.74811 6.81098 4.86431 6.50932C5.01962 6.11039 5.20459 5.82575 5.50345 5.52648C5.8023 5.22722 6.08667 5.04197 6.48628 4.88735C6.78705 4.77005 7.23998 4.63129 8.07305 4.59342C8.97371 4.55199 9.24427 4.54372 11.5251 4.54372C13.8059 4.54372 14.0767 4.55254 14.9781 4.59355C15.8112 4.63149 16.2632 4.77128 16.5649 4.88749C16.9638 5.04211 17.2484 5.22777 17.5477 5.52662C17.847 5.82548 18.0315 6.11053 18.1868 6.50946C18.3041 6.81023 18.4429 7.26316 18.4808 8.09622C18.5222 8.99764 18.5305 9.26745 18.5305 11.5493C18.5305 13.8311 18.5222 14.1009 18.4808 15.0023C18.4428 15.8354 18.3034 16.2882 18.1868 16.5891C18.0315 16.988 17.8466 17.2726 17.5477 17.5712C17.2488 17.8698 16.9638 18.055 16.5649 18.2104C16.2641 18.3277 15.8112 18.4664 14.9781 18.5043C14.0774 18.5457 13.8069 18.554 11.5251 18.554C9.24324 18.554 8.97344 18.5457 8.07305 18.5043V18.5042ZM8.0023 3.05614C7.09267 3.09756 6.47111 3.2418 5.92828 3.45302C5.36646 3.67115 4.89022 3.96378 4.41466 4.43859C3.9391 4.91339 3.64722 5.3897 3.42909 5.95221C3.21787 6.49537 3.07364 7.1166 3.03221 8.02622C2.99011 8.93728 2.98047 9.22855 2.98047 11.549C2.98047 13.8694 2.99011 14.1607 3.03221 15.0718C3.07364 15.9814 3.21787 16.6026 3.42909 17.1458C3.64722 17.7076 3.93917 18.1848 4.41466 18.6594C4.89015 19.134 5.36578 19.4262 5.92828 19.645C6.47213 19.8562 7.09267 20.0004 8.0023 20.0418C8.91383 20.0833 9.20462 20.0936 11.5251 20.0936C13.8455 20.0936 14.1368 20.0839 15.0478 20.0418C15.9575 20.0004 16.5787 19.8562 17.1218 19.645C17.6837 19.4262 18.1599 19.1342 18.6355 18.6594C19.111 18.1846 19.4023 17.7076 19.621 17.1458C19.8322 16.6026 19.9772 15.9814 20.0179 15.0718C20.0593 14.16 20.069 13.8694 20.069 11.549C20.069 9.22855 20.0593 8.93728 20.0179 8.02622C19.9765 7.11653 19.8322 6.49503 19.621 5.95221C19.4023 5.39039 19.1103 4.91415 18.6355 4.43859C18.1607 3.96303 17.6837 3.67115 17.1225 3.45302C16.5787 3.2418 15.9574 3.09688 15.0485 3.05614C14.1373 3.01451 13.8462 3.00439 11.5261 3.00439C9.20599 3.00439 8.91418 3.01403 8.00264 3.05614" fill="white"/>
<defs>
<radialGradient id="paint0_radial" cx="0" cy="0" r="1" gradientUnits="userSpaceOnUse" gradientTransform="translate(1.48854 22.4961) scale(29.2015)">
<stop offset="0.09" stop-color="#FA8F21"/>
<stop offset="0.78" stop-color="#D82D7E"/>
</radialGradient>
<radialGradient id="paint1_radial" cx="0" cy="0" r="1" gradientUnits="userSpaceOnUse" gradientTransform="translate(15.9313 21.7576) scale(25.6976)">
<stop offset="0.64" stop-color="#8C3AAA" stop-opacity="0"/>
<stop offset="1" stop-color="#8C3AAA"/>
</radialGradient>
</defs>
</svg>
