<svg width="22" height="22" viewBox="0 0 22 22" fill="none" xmlns="http://www.w3.org/2000/svg">
<path d="M10.9995 19.9641C15.8857 19.9641 19.8467 15.9508 19.8467 11C19.8467 6.04926 15.8857 2.03589 10.9995 2.03589C6.11336 2.03589 2.15234 6.04926 2.15234 11C2.15234 15.9508 6.11336 19.9641 10.9995 19.9641Z" fill="#45D19D"/>
<path d="M10.9995 20.9641C16.4503 20.9641 20.8467 16.4906 20.8467 11C20.8467 5.5094 16.4503 1.03589 10.9995 1.03589C5.54873 1.03589 1.15234 5.5094 1.15234 11C1.15234 16.4906 5.54873 20.9641 10.9995 20.9641Z" stroke="#020A36" stroke-opacity="0.5" stroke-width="2"/>
<path d="M11.0002 14.8216C13.0832 14.8216 14.7719 13.1106 14.7719 11C14.7719 8.88943 13.0832 7.17847 11.0002 7.17847C8.91716 7.17847 7.22852 8.88943 7.22852 11C7.22852 13.1106 8.91716 14.8216 11.0002 14.8216Z" fill="#8BF8BD"/>
</svg>
