<svg width="72" height="77" viewBox="0 0 72 77" fill="none" xmlns="http://www.w3.org/2000/svg">
<path d="M71.6952 35.2275C69.3584 17.5732 54.254 3.95898 36 3.95898C17.746 3.95898 2.67545 17.5732 0.304798 35.2275H0V40.0485C0 59.9775 16.1204 76.138 36 76.138C55.8796 76.138 72 59.9775 72 40.0485V35.2275H71.6952Z" fill="#04136B"/>
<path d="M36 72.179C55.8823 72.179 72 56.0212 72 36.0895C72 16.1578 55.8823 0 36 0C16.1177 0 0 16.1578 0 36.0895C0 56.0212 16.1177 72.179 36 72.179Z" fill="#45D19D"/>
<path d="M35.9992 65.3214C52.1035 65.3214 65.1585 52.2338 65.1585 36.0895C65.1585 19.9452 52.1035 6.85767 35.9992 6.85767C19.8949 6.85767 6.83984 19.9452 6.83984 36.0895C6.83984 52.2338 19.8949 65.3214 35.9992 65.3214Z" stroke="#010624" stroke-width="3.82247" stroke-miterlimit="10" stroke-linecap="round"/>
<path d="M19.4043 37.142L29.7674 47.5309L52.5934 24.6482" stroke="#010624" stroke-width="4" stroke-miterlimit="10" stroke-linecap="round" stroke-linejoin="round"/>
</svg>
