<svg width="19" height="23" viewBox="0 0 19 23" fill="none" xmlns="http://www.w3.org/2000/svg">
<path d="M16.4238 5.79195C16.2811 5.75044 16.1339 5.71269 15.9829 5.67872C15.8312 5.64551 15.6757 5.61607 15.5157 5.5904C14.9555 5.49982 14.3418 5.45679 13.6843 5.45679H8.13443C7.9978 5.45679 7.86796 5.48774 7.75171 5.5436C7.4958 5.66664 7.30557 5.90896 7.25953 6.20563L6.07889 13.6835L6.04492 13.9016C6.12267 13.4095 6.54314 13.0471 7.04212 13.0471H9.11955C13.1997 13.0471 16.3943 11.3902 17.3281 6.59666C17.3561 6.45474 17.3795 6.3166 17.4006 6.18147C17.1643 6.05616 16.9084 5.94897 16.6329 5.85763C16.5649 5.83498 16.4947 5.81309 16.4238 5.79195Z" fill="white"/>
<path d="M7.25742 6.20563C7.30347 5.90896 7.4937 5.66664 7.7496 5.54435C7.86661 5.48849 7.99569 5.45754 8.13232 5.45754H13.6822C14.3397 5.45754 14.9534 5.50057 15.5136 5.59115C15.6736 5.61682 15.8291 5.64626 15.9808 5.67948C16.1318 5.71344 16.279 5.75119 16.4217 5.79271C16.4926 5.81384 16.5628 5.83574 16.6315 5.85763C16.9071 5.94897 17.163 6.05692 17.3992 6.18147C17.677 4.40977 17.397 3.20347 16.439 2.11115C15.383 0.908628 13.4769 0.393799 11.0379 0.393799H3.95708C3.45886 0.393799 3.03386 0.756142 2.95686 1.24908L0.00754037 19.9437C-0.0505855 20.3136 0.23476 20.6473 0.607671 20.6473H4.97919L6.07678 13.6835L7.25742 6.20563Z" fill="white"/>
<path d="M16.9477 5.61377C16.9266 5.74889 16.9025 5.88704 16.8753 6.02895C15.9415 10.8232 12.7468 12.4794 8.6667 12.4794H6.58927C6.09029 12.4794 5.66982 12.8418 5.59207 13.3339L4.52844 20.0796L4.22725 21.9917C4.17667 22.3148 4.42578 22.6061 4.75189 22.6061H8.43646C8.87278 22.6061 9.24343 22.2891 9.31212 21.8588L9.34836 21.6716L10.0421 17.2691L10.0866 17.0276C10.1546 16.5958 10.526 16.2787 10.9623 16.2787H11.5134C15.0832 16.2787 17.8778 14.8294 18.6945 10.6352C19.0357 8.88316 18.8591 7.4202 17.9563 6.3913C17.683 6.08104 17.3441 5.82363 16.9477 5.61377Z" fill="white" fill-opacity="0.5"/>
</svg>
