<svg width="30" height="30" viewBox="0 0 30 30" fill="none" xmlns="http://www.w3.org/2000/svg">
<path d="M14.0969 1.60479C14.4586 0.843981 15.5414 0.843982 15.9031 1.60479L19.407 8.97421C19.5496 9.27411 19.8317 9.48367 20.1601 9.53349L28.0574 10.7319C28.8656 10.8545 29.1932 11.8425 28.6184 12.4237L22.8588 18.2478C22.6334 18.4757 22.5309 18.7977 22.5832 19.1139L23.9357 27.301C24.0715 28.1232 23.2013 28.7411 22.4699 28.3417L15.4792 24.5251C15.1805 24.362 14.8195 24.362 14.5208 24.5251L7.53012 28.3417C6.79875 28.7411 5.92847 28.1232 6.06429 27.301L7.41684 19.1139C7.46908 18.7977 7.36659 18.4757 7.14124 18.2478L1.38161 12.4237C0.806781 11.8425 1.13437 10.8545 1.94261 10.7319L9.83995 9.53349C10.1683 9.48367 10.4504 9.27411 10.593 8.97421L14.0969 1.60479Z" fill="#FB8B01" stroke="#121212" stroke-width="2" stroke-linecap="round" stroke-linejoin="round"/>
</svg>
