<svg width="13" height="13" viewBox="0 0 13 13" fill="none" xmlns="http://www.w3.org/2000/svg">
<path d="M10.6094 10.6628L12.4199 4.13843L11.7242 9.4547L10.6094 10.6628Z" fill="#D88500"/>
<path d="M3.48633 10.6421L10.6096 10.6628L6.27691 12.9743L3.48633 10.6421Z" fill="#FFB133"/>
<path d="M3.48652 10.642L6.2771 12.9742L0.698242 9.05493L3.48652 10.642Z" fill="#D88500"/>
<path d="M1.11746 4.09448L3.48652 10.6419L0.698242 9.05488L1.11746 4.09448Z" fill="#F7A400"/>
<path d="M7.3835 4.91451L6.6084 0.202881L12.4211 4.13826L7.3835 4.91451Z" fill="#F5A200"/>
<path d="M10.6099 10.6628L7.38281 4.91468L12.4204 4.13843L10.6099 10.6628Z" fill="#FCC22D"/>
<path d="M3.48633 10.6417L7.38255 4.91431L10.6096 10.6625L3.48633 10.6417Z" fill="#FFD854"/>
<path d="M1.11719 4.09448L7.38247 4.9145L3.48625 10.6419L1.11719 4.09448Z" fill="#FFE57C"/>
<path d="M7.38247 4.91451L1.11719 4.09449L6.60737 0.202881L7.38247 4.91451Z" fill="#FEC900"/>
</svg>
