<svg width="20" height="21" viewBox="0 0 20 21" fill="none" xmlns="http://www.w3.org/2000/svg">
<path fill-rule="evenodd" clip-rule="evenodd" d="M14.7567 7.58032C16.1126 8.54907 17.7738 9.11912 19.5678 9.11912V5.66847C19.2283 5.66861 18.8896 5.63319 18.5574 5.56279V8.27898C16.7635 8.27898 15.1026 7.70893 13.7463 6.74018V13.7818C13.7463 17.3045 10.8892 20.1599 7.36499 20.1599C6.05007 20.1599 4.82783 19.7626 3.8125 19.0812C4.97131 20.2654 6.58729 21.0001 8.37512 21.0001C11.8996 21.0001 14.7568 18.1446 14.7568 14.6219V7.58032H14.7567ZM16.0031 4.09907C15.3101 3.34244 14.8552 2.36452 14.7567 1.2834V0.8396H13.7992C14.0402 2.21361 14.8622 3.38754 16.0031 4.09907ZM6.04152 16.3781C5.6544 15.8707 5.44514 15.25 5.44608 14.6118C5.44608 13.0007 6.75294 11.6944 8.36521 11.6944C8.66564 11.6942 8.96431 11.7403 9.2507 11.8311V8.30338C8.91607 8.25756 8.57836 8.23813 8.24069 8.24528V10.9911C7.95417 10.9003 7.65538 10.8542 7.35483 10.8544C5.74256 10.8544 4.43582 12.1607 4.43582 13.7719C4.43582 14.9112 5.08901 15.8976 6.04152 16.3781Z" fill="#EE1D52"/>
<path fill-rule="evenodd" clip-rule="evenodd" d="M13.7467 6.74018C15.103 7.70893 16.764 8.27898 18.5579 8.27898V5.56279C17.5566 5.34969 16.6701 4.8266 16.0035 4.09907C14.8627 3.38754 14.0406 2.21361 13.7996 0.8396H11.2847V14.6217C11.279 16.2284 9.97433 17.5294 8.36553 17.5294C7.41747 17.5294 6.57522 17.0777 6.04184 16.3781C5.08933 15.8976 4.43614 14.9112 4.43614 13.7719C4.43614 12.1607 5.74288 10.8544 7.35515 10.8544C7.66402 10.8544 7.96175 10.9025 8.24101 10.9911V8.24528C4.77872 8.31677 1.99414 11.1443 1.99414 14.6219C1.99414 16.3578 2.68759 17.9315 3.81294 19.0813C4.82828 19.7627 6.05052 20.16 7.36543 20.16C10.8897 20.16 13.7467 17.3045 13.7467 13.782V6.74018Z" fill="white"/>
<path fill-rule="evenodd" clip-rule="evenodd" d="M18.5564 5.56297V4.82851C17.6534 4.82987 16.7682 4.57711 16.002 4.09913C16.6802 4.84124 17.5733 5.35301 18.5564 5.56297ZM13.7982 0.839776C13.7752 0.708477 13.7575 0.576293 13.7453 0.443554V-0.000244141H10.2727V13.782C10.2671 15.3886 8.96261 16.6895 7.35369 16.6895C6.88127 16.6895 6.43536 16.5775 6.04038 16.3783C6.57376 17.0779 7.41601 17.5295 8.36406 17.5295C9.97274 17.5295 11.2775 16.2286 11.2832 14.6219V0.839776H13.7982ZM8.23967 8.24545V7.46354C7.9495 7.42387 7.65696 7.40404 7.36409 7.40419C3.83948 7.40419 0.982422 10.2598 0.982422 13.782C0.982422 15.9904 2.1053 17.9365 3.8116 19.0813C2.68625 17.9316 1.9928 16.3578 1.9928 14.6219C1.9928 11.1445 4.77725 8.31694 8.23967 8.24545Z" fill="#69C9D0"/>
</svg>
