<svg width="19" height="19" viewBox="0 0 19 19" fill="none" xmlns="http://www.w3.org/2000/svg">
<g clip-path="url(#clip0)">
<path d="M9.50107 18.5307C14.4884 18.5307 18.5314 14.4877 18.5314 9.50034C18.5314 4.513 14.4884 0.469971 9.50107 0.469971C4.51374 0.469971 0.470703 4.513 0.470703 9.50034C0.470703 14.4877 4.51374 18.5307 9.50107 18.5307Z" stroke="white" stroke-miterlimit="10"/>
<path d="M17.2308 4.83057C14.9229 6.03819 12.2795 6.72252 9.502 6.72252C6.71104 6.72252 4.08109 6.03819 1.75977 4.83057" stroke="white" stroke-miterlimit="10"/>
<path d="M1.74609 14.1695C4.06742 12.9619 6.69737 12.2642 9.50174 12.2642C12.3061 12.2642 14.9361 12.9485 17.2574 14.1695" stroke="white" stroke-miterlimit="10"/>
<path d="M9.50078 18.5305C11.178 15.9274 12.1441 12.8278 12.1441 9.50009C12.1441 6.17241 11.178 3.07283 9.50078 0.469727C9.47395 0.509981 9.46053 0.536817 9.43369 0.577071C7.79669 3.15334 6.85742 6.21266 6.85742 9.50009C6.85742 12.8278 7.82352 15.9274 9.50078 18.5305Z" stroke="white" stroke-miterlimit="10" stroke-linejoin="round"/>
</g>
<defs>
<clipPath id="clip0">
<rect width="19" height="19" fill="white"/>
</clipPath>
</defs>
</svg>
