<svg width="24" height="24" viewBox="0 0 24 24" fill="none" xmlns="http://www.w3.org/2000/svg">
<path d="M12 24C18.6274 24 24 18.6274 24 12C24 5.37258 18.6274 0 12 0C5.37258 0 0 5.37258 0 12C0 18.6274 5.37258 24 12 24Z" fill="#2DAAE1"/>
<path d="M19.0533 7.62433C18.5345 7.85457 17.9772 8.01021 17.3913 8.08017C17.9893 7.72208 18.4474 7.15464 18.6637 6.47929C18.0956 6.81668 17.474 7.0542 16.8257 7.18153C16.2981 6.61917 15.5457 6.26807 14.7134 6.26807C13.1158 6.26807 11.8201 7.56323 11.8201 9.16179C11.8201 9.38829 11.8456 9.60926 11.8946 9.82142C9.48961 9.70055 7.3574 8.54852 5.93021 6.79801C5.681 7.22553 5.53835 7.72261 5.53835 8.25296C5.53835 9.25678 6.04928 10.1425 6.82563 10.6613C6.36605 10.647 5.91655 10.523 5.51471 10.2995V10.336C5.51471 11.7382 6.51203 12.9074 7.83591 13.1733C7.59272 13.2399 7.3375 13.2747 7.07346 13.2747C6.88678 13.2747 6.70566 13.2571 6.52872 13.2238C6.89697 14.3731 7.96567 15.2096 9.23159 15.2333C8.24121 16.0096 6.9933 16.4724 5.63793 16.4724C5.40448 16.4724 5.17376 16.4585 4.94727 16.4312C6.22808 17.2525 7.74885 17.7319 9.38308 17.7319C14.7055 17.7319 17.6164 13.3225 17.6164 9.49859C17.6164 9.37305 17.6136 9.24845 17.6076 9.12429C18.1747 8.71409 18.6643 8.20617 19.0533 7.62433Z" fill="white"/>
</svg>
