<svg width="23" height="18" viewBox="0 0 23 18" fill="none" xmlns="http://www.w3.org/2000/svg">
<path d="M18.9413 1.41373C17.5152 0.759377 15.9859 0.277277 14.387 0.00115828C14.3578 -0.00417072 14.3287 0.00914675 14.3137 0.0357823C14.1171 0.38559 13.8992 0.841943 13.7467 1.20063C12.0269 0.943166 10.3159 0.943166 8.63141 1.20063C8.47882 0.83397 8.25305 0.38559 8.05549 0.0357823C8.04049 0.0100354 8.0114 -0.00328203 7.98229 0.00115828C6.38422 0.276395 4.85494 0.758494 3.42796 1.41373C3.4156 1.41906 3.40502 1.42794 3.39799 1.43948C0.497274 5.77308 -0.297353 10.0002 0.0924643 14.1749C0.0942281 14.1953 0.105693 14.2148 0.121568 14.2272C2.03538 15.6327 3.88923 16.4859 5.70865 17.0515C5.73777 17.0604 5.76862 17.0497 5.78715 17.0257C6.21754 16.438 6.60119 15.8183 6.93013 15.1666C6.94954 15.1284 6.93101 15.0831 6.89134 15.068C6.2828 14.8372 5.70336 14.5557 5.14597 14.2361C5.10188 14.2104 5.09835 14.1473 5.13891 14.1171C5.25621 14.0292 5.37353 13.9378 5.48553 13.8454C5.5058 13.8286 5.53403 13.825 5.55786 13.8357C9.21965 15.5075 13.184 15.5075 16.8026 13.8357C16.8264 13.8241 16.8546 13.8277 16.8758 13.8446C16.9878 13.9369 17.1051 14.0292 17.2233 14.1171C17.2638 14.1473 17.2612 14.2104 17.2171 14.2361C16.6597 14.5619 16.0803 14.8372 15.4708 15.0671C15.4312 15.0822 15.4135 15.1284 15.4329 15.1666C15.7689 15.8174 16.1526 16.4371 16.575 17.0248C16.5927 17.0497 16.6244 17.0604 16.6535 17.0515C18.4818 16.4859 20.3356 15.6327 22.2494 14.2272C22.2662 14.2148 22.2768 14.1962 22.2785 14.1757C22.7451 9.34935 21.4971 5.15692 18.9704 1.44036C18.9642 1.42794 18.9536 1.41906 18.9413 1.41373ZM7.47696 11.6329C6.37451 11.6329 5.46612 10.6208 5.46612 9.37777C5.46612 8.13477 6.35689 7.12264 7.47696 7.12264C8.60582 7.12264 9.50542 8.14365 9.48777 9.37777C9.48777 10.6208 8.597 11.6329 7.47696 11.6329ZM14.9117 11.6329C13.8093 11.6329 12.9009 10.6208 12.9009 9.37777C12.9009 8.13477 13.7916 7.12264 14.9117 7.12264C16.0406 7.12264 16.9401 8.14365 16.9225 9.37777C16.9225 10.6208 16.0406 11.6329 14.9117 11.6329Z" fill="#5865F2"/>
</svg>
