<svg width="26" height="25" viewBox="0 0 26 25" fill="none" xmlns="http://www.w3.org/2000/svg">
<path fill-rule="evenodd" clip-rule="evenodd" d="M9.4309 3.67494C10.2234 3.57396 10.7859 2.8339 10.6873 2.02196C10.5888 1.21001 9.86648 0.633652 9.07402 0.734624C8.50489 0.807141 7.98028 0.914467 7.47215 1.0767C4.06967 2.16304 1.40532 4.89294 0.345066 8.37913C0.186728 8.89974 0.0819796 9.43728 0.0112035 10.0204C-0.0873439 10.8324 0.475175 11.5724 1.26763 11.6734C2.06007 11.7744 2.78237 11.198 2.88091 10.3861C2.93524 9.93848 3.00915 9.57891 3.10595 9.26061C3.88347 6.70407 5.83733 4.70215 8.33248 3.9055C8.64312 3.80631 8.99408 3.73059 9.4309 3.67494ZM6.1883 9.33068C5.63672 10.4398 5.63672 11.8918 5.63672 14.7958V19.5365C5.63672 21.1959 5.63672 22.0257 5.95191 22.6594C6.22916 23.217 6.67156 23.6704 7.21569 23.9544C7.83427 24.2772 8.64407 24.2772 10.2636 24.2772H17.7824C20.6166 24.2772 22.0338 24.2772 23.1162 23.7122C24.0685 23.215 24.8426 22.4218 25.3279 21.4461C25.8795 20.337 25.8795 18.885 25.8795 15.981V14.7958C25.8795 11.8918 25.8795 10.4398 25.3279 9.33068C24.8426 8.35503 24.0685 7.56179 23.1162 7.06468C22.0338 6.49951 20.6166 6.49951 17.7824 6.49951H13.7338C10.8996 6.49951 9.48244 6.49951 8.39991 7.06468C7.44767 7.56179 6.67349 8.35503 6.1883 9.33068ZM14.3122 13.9069C13.5136 13.9069 12.8663 14.5702 12.8663 15.3884V18.3514C12.8663 19.1696 13.5136 19.8328 14.3122 19.8328C15.1107 19.8328 15.7581 19.1696 15.7581 18.3514V15.3884C15.7581 14.5702 15.1107 13.9069 14.3122 13.9069ZM18.65 15.3884C18.65 14.5702 19.2972 13.9069 20.0959 13.9069C20.8944 13.9069 21.5418 14.5702 21.5418 15.3884V18.3514C21.5418 19.1696 20.8944 19.8328 20.0959 19.8328C19.2972 19.8328 18.65 19.1696 18.65 18.3514V15.3884Z" fill="#09161D"/>
</svg>