<svg width="23" height="27" viewBox="0 0 23 27" fill="none" xmlns="http://www.w3.org/2000/svg">
<g clip-path="url(#clip0)">
<path d="M11.6199 15.6411H9.81344C9.71052 15.6425 9.61114 15.6045 9.53681 15.5353C9.50243 15.5032 9.47603 15.464 9.45965 15.4205C9.44328 15.377 9.43735 15.3304 9.44233 15.2843L9.60208 13.6965C9.61763 13.5272 9.77925 13.3972 9.97257 13.3978H11.7796C11.8853 13.3978 11.9848 13.4359 12.0562 13.5042C12.1265 13.572 12.1613 13.6633 12.1507 13.7546L11.991 15.343C11.9754 15.5123 11.8138 15.6417 11.6199 15.6411ZM11.9095 12.5314H10.0695C10.022 12.5322 9.97481 12.524 9.93056 12.5071C9.88632 12.4903 9.84593 12.4651 9.8117 12.433C9.77747 12.4009 9.75007 12.3626 9.73106 12.3203C9.71205 12.2779 9.70181 12.2323 9.70092 12.1861L10.2019 6.81982C10.2144 6.73411 10.2587 6.65581 10.3266 6.59976C10.3944 6.54371 10.481 6.51379 10.5699 6.51568H12.4099C12.6132 6.51568 12.7786 6.67047 12.7786 6.86094L12.2626 12.2302C12.2499 12.3129 12.2074 12.3885 12.1427 12.4437C12.0781 12.4988 11.9955 12.5299 11.9095 12.5314ZM22.7307 6.27382L17.9641 0.880938C17.8585 0.761396 17.7275 0.66547 17.5802 0.599723C17.4329 0.533977 17.2727 0.499962 17.1107 0.500008H2.83511C2.55727 0.499 2.28894 0.598413 2.08219 0.778961C1.87544 0.959509 1.74501 1.20832 1.71619 1.47712L0.00424654 20.3906C-0.0231048 20.6947 0.0825709 20.9953 0.295165 21.2208C0.400681 21.3319 0.528738 21.4206 0.671252 21.4812C0.813766 21.5417 0.967642 21.5729 1.12317 21.5727H3.92668L3.50025 26.5L9.01341 21.5763H15.2756C15.5678 21.5763 15.8488 21.4675 16.0589 21.2698L21.9407 15.7342C22.1346 15.5516 22.2539 15.3079 22.2769 15.0467L22.9962 7.07498C23.009 6.93098 22.9922 6.78592 22.9466 6.64834C22.901 6.51076 22.8276 6.38342 22.7307 6.27382ZM18.3713 13.526C18.3489 13.7882 18.2294 14.0336 18.035 14.2165L14.6298 17.3589C14.4201 17.5521 14.1421 17.6595 13.8534 17.6588H5.52362C5.3687 17.657 5.21579 17.6244 5.07427 17.563C4.93275 17.5017 4.8056 17.4129 4.7006 17.3021C4.59581 17.1915 4.51548 17.0612 4.46458 16.9193C4.41368 16.7773 4.3933 16.6267 4.40471 16.4767L5.41298 5.40373C5.44179 5.13492 5.57223 4.88611 5.77898 4.70557C5.98573 4.52502 6.25405 4.4256 6.5319 4.42661H15.0034C15.3278 4.42661 15.6374 4.56326 15.85 4.8015L18.5391 7.81024C18.7418 8.02671 18.8462 8.31331 18.8282 8.60475L18.3713 13.5254V13.526Z" fill="url(#paint0_linear)"/>
</g>
<defs>
<linearGradient id="paint0_linear" x1="19.8557" y1="3.48038" x2="-0.545218" y2="24.0136" gradientUnits="userSpaceOnUse">
<stop stop-color="#F59C07"/>
<stop offset="1" stop-color="#F57507"/>
</linearGradient>
<clipPath id="clip0">
<rect width="23" height="26" fill="white" transform="translate(0 0.5)"/>
</clipPath>
</defs>
</svg>