<svg width="18" height="13" viewBox="0 0 23 18" fill="none" xmlns="http://www.w3.org/2000/svg">
<path d="M23 2.12955C22.154 2.49106 21.2454 2.73544 20.29 2.84529C21.265 2.28303 22.012 1.39206 22.3647 0.331652C21.4385 0.861403 20.4248 1.23435 19.3678 1.43429C18.5075 0.551288 17.2808 0 15.9237 0C13.3188 0 11.2061 2.03361 11.2061 4.5436C11.2061 4.89924 11.2477 5.2462 11.3277 5.57932C7.40631 5.38954 3.92974 3.58067 1.60269 0.832092C1.19635 1.50337 0.963769 2.28385 0.963769 3.11659C0.963769 4.69275 1.79684 6.0834 3.06268 6.89801C2.31333 6.87565 1.58042 6.68087 0.925218 6.32995V6.38737C0.925218 8.589 2.55135 10.4248 4.70995 10.8423C4.31342 10.9469 3.89728 11.0016 3.46677 11.0016C3.16238 11.0016 2.86707 10.9738 2.57858 10.9216C3.179 12.7261 4.92152 14.0396 6.9856 14.0768C5.37079 15.2958 3.33607 16.0224 1.12613 16.0224C0.745497 16.0224 0.369308 16.0005 0 15.9577C2.08838 17.2472 4.56799 18 7.23262 18C15.9109 18 20.6571 11.0765 20.6571 5.07243C20.6571 4.87532 20.6525 4.67967 20.6427 4.48472C21.5674 3.84063 22.3656 3.04313 23 2.12955Z" fill="white"/>
</svg>