<svg width="30" height="31" viewBox="0 0 30 31" fill="none" xmlns="http://www.w3.org/2000/svg">
<path d="M14.0969 2.2874C14.4586 1.5266 15.5414 1.5266 15.9031 2.28741L19.407 9.65682C19.5496 9.95673 19.8317 10.1663 20.1601 10.2161L28.0574 11.4145C28.8656 11.5371 29.1932 12.5251 28.6184 13.1063L22.8588 18.9304C22.6334 19.1583 22.5309 19.4803 22.5832 19.7965L23.9357 27.9836C24.0715 28.8058 23.2013 29.4237 22.4699 29.0243L15.4792 25.2077C15.1805 25.0446 14.8195 25.0446 14.5208 25.2077L7.53012 29.0243C6.79875 29.4237 5.92847 28.8058 6.06429 27.9836L7.41684 19.7965C7.46908 19.4803 7.36659 19.1583 7.14124 18.9304L1.38161 13.1063C0.806781 12.5251 1.13437 11.5371 1.94261 11.4145L9.83995 10.2161C10.1683 10.1663 10.4504 9.95673 10.593 9.65682L14.0969 2.2874Z" fill="#FEDA3D" stroke="#121212" stroke-width="2" stroke-linecap="round" stroke-linejoin="round"/>
</svg>
