<svg width="22" height="81" viewBox="0 0 22 81" fill="none" xmlns="http://www.w3.org/2000/svg">
<path d="M11.5 78C14.5376 78 17 75.5376 17 72.5C17 69.4624 14.5376 67 11.5 67C8.46243 67 6 69.4624 6 72.5C6 75.5376 8.46243 78 11.5 78Z" fill="#04136B"/>
<path d="M11.5586 9.7998V55.8848" stroke="#04136B" stroke-width="10" stroke-miterlimit="10" stroke-linecap="round" stroke-linejoin="round"/>
<path d="M8.55859 5V51.085" stroke="#45D19D" stroke-width="10" stroke-miterlimit="10" stroke-linecap="round" stroke-linejoin="round"/>
<path d="M8.5 75C11.5376 75 14 72.5376 14 69.5C14 66.4624 11.5376 64 8.5 64C5.46243 64 3 66.4624 3 69.5C3 72.5376 5.46243 75 8.5 75Z" fill="#45D19D"/>
</svg>
