<svg width="122" height="25" viewBox="0 0 122 25" fill="none" xmlns="http://www.w3.org/2000/svg">
<path d="M25.8188 2.80366C23.8458 1.89228 21.7362 1.22993 19.5307 0.852783C19.2598 1.33627 18.9434 1.98658 18.7252 2.5039C16.3807 2.15579 14.0577 2.15579 11.7563 2.5039C11.5382 1.98658 11.2145 1.33627 10.9412 0.852783C8.73332 1.22993 6.6213 1.89472 4.64833 2.80849C0.668819 8.74564 -0.40996 14.5353 0.129431 20.2428C2.76885 22.1888 5.32676 23.3709 7.84151 24.1445C8.46241 23.3008 9.01618 22.404 9.49323 21.4588C8.58466 21.1179 7.71445 20.6973 6.89221 20.209C7.11034 20.0494 7.32372 19.8826 7.52987 19.711C12.545 22.0269 17.994 22.0269 22.9492 19.711C23.1578 19.8826 23.3711 20.0494 23.5869 20.209C22.7622 20.6997 21.8896 21.1203 20.9811 21.4612C21.4581 22.404 22.0095 23.3033 22.6328 24.1469C25.15 23.3733 27.7103 22.1912 30.3497 20.2428C30.9826 13.6264 29.2685 7.88987 25.8188 2.80366ZM10.1765 16.7328C8.67098 16.7328 7.43636 15.3451 7.43636 13.6554C7.43636 11.9656 8.64462 10.5756 10.1765 10.5756C11.7084 10.5756 12.9429 11.9632 12.9166 13.6554C12.919 15.3451 11.7084 16.7328 10.1765 16.7328ZM20.3026 16.7328C18.7972 16.7328 17.5625 15.3451 17.5625 13.6554C17.5625 11.9656 18.7707 10.5756 20.3026 10.5756C21.8345 10.5756 23.0691 11.9632 23.0428 13.6554C23.0428 15.3451 21.8345 16.7328 20.3026 16.7328Z" fill="white"/>
<path d="M40.957 6.79541H47.5015C49.0791 6.79541 50.4119 7.0444 51.5053 7.53997C52.5958 8.03551 53.4134 8.7269 53.9553 9.61167C54.4968 10.4964 54.7701 11.5093 54.7701 12.6504C54.7701 13.7672 54.4872 14.7801 53.9215 15.6866C53.3558 16.5955 52.4951 17.3135 51.3374 17.8429C50.1796 18.3723 48.7457 18.6382 47.0318 18.6382H40.957V6.79541ZM46.9646 15.6286C48.0266 15.6286 48.8443 15.3603 49.4146 14.826C49.9853 14.2893 50.2707 13.5593 50.2707 12.6334C50.2707 11.7752 50.0162 11.0911 49.5082 10.5786C49.0001 10.0661 48.2305 9.80748 47.2019 9.80748H45.1546V15.6286H46.9646Z" fill="white"/>
<path d="M64.5672 18.6238C63.661 18.3869 62.8433 18.0436 62.1172 17.5916V14.7826C62.6662 15.2104 63.4019 15.5634 64.3249 15.8414C65.2478 16.117 66.1398 16.2548 67.0026 16.2548C67.4054 16.2548 67.71 16.2016 67.9159 16.0952C68.1223 15.9889 68.2255 15.8607 68.2255 15.7133C68.2255 15.5441 68.1704 15.4039 68.0576 15.2902C67.9448 15.1766 67.7267 15.0823 67.4033 15.0025L65.3895 14.5456C64.2363 14.2749 63.4187 13.9002 62.9323 13.4192C62.4456 12.9405 62.2033 12.312 62.2033 11.5336C62.2033 10.8784 62.4142 10.3104 62.8412 9.82446C63.2653 9.33858 63.8695 8.96386 64.6533 8.70036C65.4375 8.43446 66.3529 8.30151 67.4054 8.30151C68.345 8.30151 69.2057 8.40303 69.9899 8.6061C70.7738 8.80918 71.4209 9.06782 71.9365 9.38449V12.0412C71.4088 11.7246 70.8047 11.4756 70.1145 11.287C69.4263 11.1009 68.7194 11.009 67.9903 11.009C66.9379 11.009 66.4131 11.1903 66.4131 11.5505C66.4131 11.7197 66.4946 11.8454 66.6575 11.93C66.8205 12.0146 67.12 12.1017 67.5541 12.1935L69.232 12.4981C70.328 12.6891 71.1452 13.0251 71.6821 13.5038C72.2194 13.9824 72.4876 14.6907 72.4876 15.6287C72.4876 16.656 72.0443 17.4707 71.1548 18.0751C70.2653 18.6794 69.0043 18.9816 67.3695 18.9816C66.4081 18.9792 65.4734 18.8607 64.5672 18.6238Z" fill="white"/>
<path d="M76.4512 18.2683C75.4902 17.7944 74.7637 17.1514 74.2794 16.3392C73.7952 15.5269 73.5508 14.6131 73.5508 13.5978C73.5508 12.5825 73.8023 11.6736 74.3058 10.8734C74.8092 10.0733 75.5475 9.44473 76.521 8.98784C77.4941 8.53096 78.6568 8.30371 80.0113 8.30371C81.6893 8.30371 83.0822 8.65908 84.1898 9.36978V12.4665C83.7992 12.1957 83.3434 11.9757 82.8232 11.8065C82.303 11.6373 81.7469 11.5527 81.1524 11.5527C80.112 11.5527 79.2994 11.7437 78.712 12.128C78.1245 12.5124 77.83 13.0128 77.83 13.6341C77.83 14.2433 78.1149 14.7413 78.6856 15.1329C79.2564 15.5221 80.0832 15.7179 81.1691 15.7179C81.7277 15.7179 82.2792 15.6357 82.8232 15.4737C83.3651 15.3094 83.8326 15.1087 84.2233 14.8718V17.8669C82.9937 18.6115 81.5673 18.9838 79.9441 18.9838C78.5778 18.979 77.4126 18.7421 76.4512 18.2683Z" fill="white"/>
<path d="M88.3743 18.2685C87.4059 17.7947 86.6676 17.1468 86.1591 16.3224C85.6511 15.4981 85.3945 14.5795 85.3945 13.5642C85.3945 12.5489 85.6486 11.6423 86.1591 10.847C86.6697 10.0517 87.4034 9.428 88.3672 8.97594C89.3282 8.52388 90.4767 8.29907 91.8071 8.29907C93.1378 8.29907 94.2859 8.52388 95.2473 8.97594C96.2087 9.428 96.9423 10.0469 97.4458 10.8373C97.9493 11.6279 98.2008 12.5344 98.2008 13.5618C98.2008 14.5771 97.9493 15.4957 97.4458 16.32C96.9423 17.1444 96.2062 17.7922 95.2377 18.266C94.2692 18.7399 93.1257 18.9768 91.805 18.9768C90.4839 18.9768 89.3403 18.7423 88.3743 18.2685ZM93.4733 15.266C93.8811 14.8551 94.087 14.3112 94.087 13.6343C94.087 12.9574 93.8831 12.4183 93.4733 12.0195C93.0659 11.6182 92.5094 11.4175 91.805 11.4175C91.088 11.4175 90.5269 11.6182 90.117 12.0195C89.7097 12.4208 89.5058 12.9574 89.5058 13.6343C89.5058 14.3112 89.7097 14.8551 90.117 15.266C90.5248 15.677 91.088 15.8849 91.805 15.8849C92.5094 15.8825 93.0659 15.677 93.4733 15.266Z" fill="white"/>
<path d="M108.285 8.92735V12.5825C107.858 12.2996 107.307 12.1594 106.624 12.1594C105.729 12.1594 105.039 12.4326 104.559 12.9789C104.078 13.5253 103.838 14.3762 103.838 15.5269V18.6405H99.7266V8.74123H103.754V11.8887C103.977 10.738 104.339 9.8895 104.838 9.34071C105.334 8.7944 105.976 8.52124 106.758 8.52124C107.35 8.52124 107.858 8.65662 108.285 8.92735Z" fill="white"/>
<path d="M121.944 6.45679V18.6405H117.832V16.4238C117.485 17.2578 116.958 17.8936 116.248 18.3287C115.538 18.7614 114.661 18.979 113.62 18.979C112.69 18.979 111.88 18.7517 111.187 18.2948C110.494 17.838 109.96 17.2119 109.584 16.4165C109.21 15.6212 109.02 14.7219 109.02 13.7163C109.008 12.6792 109.207 11.7485 109.617 10.9242C110.025 10.0998 110.602 9.45682 111.346 8.99507C112.089 8.53335 112.937 8.30128 113.889 8.30128C115.848 8.30128 117.161 9.15945 117.832 10.8734V6.45679H121.944ZM117.219 15.1982C117.639 14.7872 117.847 14.253 117.847 13.6003C117.847 12.9693 117.643 12.4544 117.236 12.0604C116.828 11.6663 116.269 11.4681 115.567 11.4681C114.874 11.4681 114.321 11.6687 113.906 12.07C113.491 12.4713 113.285 12.991 113.285 13.6341C113.285 14.2771 113.491 14.8017 113.906 15.2078C114.321 15.6139 114.867 15.817 115.55 15.817C116.243 15.8146 116.799 15.6091 117.219 15.1982Z" fill="white"/>
<path d="M58.2334 9.79515C59.3652 9.79515 60.2831 8.96392 60.2831 7.93857C60.2831 6.91322 59.3652 6.08203 58.2334 6.08203C57.1011 6.08203 56.1836 6.91322 56.1836 7.93857C56.1836 8.96392 57.1011 9.79515 58.2334 9.79515Z" fill="white"/>
<path d="M56.1836 11.0742C57.4395 11.6205 58.9979 11.6447 60.2827 11.0742V18.6939H56.1836V11.0742Z" fill="white"/>
</svg>
