<svg width="579" height="377" viewBox="0 0 579 377" fill="none" xmlns="http://www.w3.org/2000/svg">
<path d="M82.832 -73.4062V457.478" stroke="white" stroke-opacity="0.1"/>
<path d="M173.422 -73.4062V457.478" stroke="white" stroke-opacity="0.1"/>
<path d="M264.016 -73.4062V457.478" stroke="white" stroke-opacity="0.1"/>
<path d="M354.602 -73.4062V457.478" stroke="white" stroke-opacity="0.1"/>
<path d="M445.195 -73.4062V457.478" stroke="white" stroke-opacity="0.1"/>
<path d="M535.781 -73.4062V457.478" stroke="white" stroke-opacity="0.1"/>
<path d="M37.5391 -73.4062V457.478" stroke="white" stroke-opacity="0.1"/>
<path d="M128.133 -73.4062V457.478" stroke="white" stroke-opacity="0.1"/>
<path d="M218.719 -73.4062V457.478" stroke="white" stroke-opacity="0.1"/>
<path d="M309.312 -73.4062V457.478" stroke="white" stroke-opacity="0.1"/>
<path d="M399.906 -73.4062V457.478" stroke="white" stroke-opacity="0.1"/>
<path d="M490.484 -73.4062V457.478" stroke="white" stroke-opacity="0.1"/>
<path d="M-185 342.986L759 342.986" stroke="white" stroke-opacity="0.1"/>
<path d="M-185 266.659L759 266.659" stroke="white" stroke-opacity="0.1"/>
<path d="M-185 190.332L759 190.332" stroke="white" stroke-opacity="0.1"/>
<path d="M-185 114.004L759 114.004" stroke="white" stroke-opacity="0.1"/>
<path d="M-185 37.6768L759 37.6767" stroke="white" stroke-opacity="0.1"/>
<path d="M-185 304.823L759 304.822" stroke="white" stroke-opacity="0.1"/>
<path d="M-185 228.495L759 228.495" stroke="white" stroke-opacity="0.1"/>
<path d="M-185 152.168L759 152.168" stroke="white" stroke-opacity="0.1"/>
<path d="M-185 75.8403L759 75.8403" stroke="white" stroke-opacity="0.1"/>
<path d="M-185 -0.487061L759 -0.487095" stroke="white" stroke-opacity="0.1"/>
</svg>
