<svg width="180" height="60" viewBox="0 0 180 60" fill="none" xmlns="http://www.w3.org/2000/svg">
<path d="M2 12C2 6.47715 6.47715 2 12 2H168C173.523 2 178 6.47715 178 12V39C178 44.5229 173.523 49 168 49H100.5L91.5 57L82.5 49H12C6.47715 49 2 44.5228 2 39V12Z" fill="#010624" fill-opacity="0.7"/>
<path d="M90.8356 57.7474L91.5 58.338L92.1644 57.7474L100.88 50H168C174.075 50 179 45.0751 179 39V12C179 5.92487 174.075 1 168 1H12C5.92487 1 1 5.92487 1 12V39C1 45.0751 5.92487 50 12 50H82.1198L90.8356 57.7474Z" stroke="white" stroke-opacity="0.1" stroke-width="2"/>
</svg>
