<svg width="71" height="69" fill="none" xmlns="http://www.w3.org/2000/svg"><g clip-path="url(#clip0)" stroke-width="6.094" stroke-miterlimit="10" stroke-linecap="round"><path d="M12.844 58.925C8.438 53.346 5.86 46.315 5.86 38.674 5.86 20.532 20.532 5.86 38.673 5.86c12.282 0 22.97 6.703 28.595 16.688" stroke="#04136B"/><path d="M14.954 65.253a35.526 35.526 0 01-11.907-26.58c0-19.688 15.938-35.626 35.626-35.626 11.017 0 20.86 5.016 27.424 12.845" stroke="#45D19D"/><path d="M19.08 29.72c4.97-10.829 17.767-15.61 28.595-10.641 10.829 4.969 15.61 17.766 10.641 28.595" stroke="#04136B"/><path d="M19.69 23.767c8.25-10.5 23.391-12.329 33.892-4.079 10.5 8.25 12.328 23.392 4.078 33.893" stroke="#45D19D"/></g><defs><clipPath id="clip0"><path fill="#fff" d="M0 0h70.316v68.3H0z"/></clipPath></defs></svg>