<?xml version="1.0" encoding="utf-8"?><svg viewBox="0 0 180 122" xmlns="http://www.w3.org/2000/svg" xmlns:xlink="http://www.w3.org/1999/xlink"><style>:root>svg{display:none}:root>svg:target{display:block}</style><svg fill="none" viewBox="0 0 15 14" id="arrow-go-to" xmlns="http://www.w3.org/2000/svg"><path d="M5.953 1.09l.694-.693a.747.747 0 011.06 0l6.074 6.072a.747.747 0 010 1.06l-6.075 6.074a.747.747 0 01-1.06 0l-.693-.694a.75.75 0 01.013-1.072L9.73 8.25H.75A.748.748 0 010 7.5v-1c0-.416.334-.75.75-.75h8.981L5.966 2.162a.745.745 0 01-.013-1.071z" fill="#010624"/></svg><svg fill="none" viewBox="0 0 18 16" id="arrow-go-to-bold" xmlns="http://www.w3.org/2000/svg"><path d="M1.803 8.167h14M10.136 2.333l5.834 5.834L10.136 14" stroke="#18191F" stroke-width="3" stroke-linecap="round" stroke-linejoin="round"/></svg><svg fill="none" viewBox="0 0 6 12" id="arrow-next" xmlns="http://www.w3.org/2000/svg"><path d="M1 11l4-4.667-4-4.666" stroke="#fff" stroke-width="2" stroke-linecap="round" stroke-linejoin="round"/></svg><svg fill="none" viewBox="0 0 22 24" id="icon-bank" xmlns="http://www.w3.org/2000/svg"><g clip-path="url(#adclip0)" fill="#fff"><path d="M5.7 10.3H2.3v8h3.4v-8zM21.7 20.6H0V24h21.7v-3.4zM12.5 10.3H9.1v8h3.4v-8zM10.8 0L0 5.7V8h21.7V5.7L10.8 0zM19.4 10.3H16v8h3.4v-8z"/></g><defs><clipPath id="adclip0"><path fill="#fff" d="M0 0h21.7v24H0z"/></clipPath></defs></svg><svg fill="none" viewBox="0 0 22 15" id="icon-card" xmlns="http://www.w3.org/2000/svg"><g clip-path="url(#aeclip0)" fill="#fff"><path d="M22 2.75v-1c0-1-.8-1.8-1.8-1.8H1.8C.8.05 0 .85 0 1.85v1h22v-.1zM0 5.75v7.4c0 1 .8 1.8 1.8 1.8h18.5c1 0 1.8-.8 1.8-1.8v-7.4H0zm4.2 6h-2v-2h2v2zm11 0h-9v-2h9v2z"/></g><defs><clipPath id="aeclip0"><path fill="#fff" transform="translate(0 .05)" d="M0 0h22v14.9H0z"/></clipPath></defs></svg><svg fill="none" viewBox="0 0 13 8" id="icon-caret" xmlns="http://www.w3.org/2000/svg"><path d="M12 1L6.5 7 1 1" stroke="#fff" stroke-opacity=".7" stroke-width="2" stroke-linecap="round" stroke-linejoin="round"/></svg><svg fill="none" viewBox="0 0 13 9" id="icon-checkbox" xmlns="http://www.w3.org/2000/svg"><path d="M11.167 1L4.75 7.417 1.833 4.5" stroke="#031059" stroke-width="2" stroke-linecap="round" stroke-linejoin="round"/></svg><svg fill="none" viewBox="0 0 20 17" id="icon-checkbox-green" xmlns="http://www.w3.org/2000/svg"><path d="M18 2.846L7 14.27 2 9.077" stroke="#45D19D" stroke-width="4" stroke-linecap="round" stroke-linejoin="round"/></svg><svg fill="none" viewBox="0 0 30 30" id="icon-close" xmlns="http://www.w3.org/2000/svg"><path d="M22.5 7.5l-15 15M7.5 7.5l15 15" stroke="#fff" stroke-width="3" stroke-linecap="round" stroke-linejoin="round"/></svg><svg fill="none" viewBox="0 0 13 13" id="icon-diamonds" xmlns="http://www.w3.org/2000/svg"><path d="M10.61 10.663l1.81-6.525-.696 5.317-1.115 1.208z" fill="#D88500"/><path d="M3.486 10.642l7.124.02-4.333 2.312-2.79-2.332z" fill="#FFB133"/><path d="M3.487 10.642l2.79 2.332-5.579-3.92 2.789 1.588z" fill="#D88500"/><path d="M1.117 4.094l2.37 6.548L.698 9.055l.42-4.96z" fill="#F7A400"/><path d="M7.383 4.915L6.608.203l5.813 3.935-5.037.777z" fill="#F5A200"/><path d="M10.61 10.663L7.383 4.915l5.037-.777-1.81 6.525z" fill="#FCC22D"/><path d="M3.486 10.642l3.897-5.728 3.227 5.748-7.124-.02z" fill="#FFD854"/><path d="M1.117 4.094l6.265.82-3.896 5.728-2.369-6.548z" fill="#FFE57C"/><path d="M7.382 4.915l-6.265-.82L6.607.202l.775 4.712z" fill="#FEC900"/></svg><svg fill="none" viewBox="0 0 23 18" id="icon-discord" xmlns="http://www.w3.org/2000/svg"><path d="M18.941 1.414A18.452 18.452 0 0014.387 0a.07.07 0 00-.073.035c-.197.35-.415.806-.567 1.165a17.035 17.035 0 00-5.116 0A11.789 11.789 0 008.055.036.072.072 0 007.982 0a18.4 18.4 0 00-4.554 1.413.065.065 0 00-.03.025C.498 5.773-.297 10 .092 14.175c.002.02.014.04.03.052a18.555 18.555 0 005.587 2.825c.029.008.06-.002.078-.026.43-.588.814-1.208 1.143-1.86a.07.07 0 00-.039-.098 12.216 12.216 0 01-1.745-.832.072.072 0 01-.007-.119c.117-.088.235-.18.347-.272a.07.07 0 01.072-.01c3.662 1.672 7.626 1.672 11.245 0a.069.069 0 01.073.01c.112.092.23.184.347.272.04.03.038.093-.006.12a11.46 11.46 0 01-1.746.83.072.072 0 00-.038.1c.336.65.72 1.27 1.142 1.858a.07.07 0 00.079.027 18.493 18.493 0 005.595-2.825.071.071 0 00.03-.051c.466-4.827-.782-9.02-3.309-12.736a.057.057 0 00-.029-.026zM7.477 11.633c-1.102 0-2.01-1.012-2.01-2.255 0-1.243.89-2.255 2.01-2.255 1.129 0 2.028 1.02 2.01 2.255 0 1.243-.89 2.255-2.01 2.255zm7.435 0c-1.103 0-2.011-1.012-2.011-2.255 0-1.243.89-2.255 2.01-2.255 1.13 0 2.03 1.02 2.011 2.255 0 1.243-.881 2.255-2.01 2.255z" fill="#5865F2"/></svg><svg fill="none" viewBox="0 0 72 77" id="icon-error-bg" xmlns="http://www.w3.org/2000/svg"><path d="M71.695 35.227C69.358 17.573 54.254 3.96 36 3.96S2.675 17.573.305 35.227H0v4.822c0 19.928 16.12 36.089 36 36.089s36-16.16 36-36.09v-4.82h-.305z" fill="#04136B"/><path d="M36 72.179c19.882 0 36-16.158 36-36.09C72 16.159 55.882 0 36 0S0 16.158 0 36.09C0 56.02 16.118 72.178 36 72.178z" fill="#45D19D"/><path d="M36 65.321c16.103 0 29.159-13.087 29.159-29.231 0-16.145-13.056-29.232-29.16-29.232S6.84 19.945 6.84 36.09C6.84 52.233 19.896 65.32 36 65.32z" stroke="#010624" stroke-width="3.822" stroke-miterlimit="10" stroke-linecap="round"/><path d="M36 44V17.5" stroke="#010624" stroke-width="4" stroke-miterlimit="10" stroke-linecap="round" stroke-linejoin="round"/><circle cx="36" cy="53" r="3" fill="#010624"/></svg><svg fill="none" viewBox="0 0 22 81" id="icon-error-green" xmlns="http://www.w3.org/2000/svg"><path d="M11.5 78a5.5 5.5 0 100-11 5.5 5.5 0 000 11z" fill="#04136B"/><path d="M11.559 9.8v46.085" stroke="#04136B" stroke-width="10" stroke-miterlimit="10" stroke-linecap="round" stroke-linejoin="round"/><path d="M8.559 5v46.085" stroke="#45D19D" stroke-width="10" stroke-miterlimit="10" stroke-linecap="round" stroke-linejoin="round"/><path d="M8.5 75a5.5 5.5 0 100-11 5.5 5.5 0 000 11z" fill="#45D19D"/></svg><svg fill="none" viewBox="0 0 26 25" id="icon-facebook" xmlns="http://www.w3.org/2000/svg"><g clip-path="url(#anclip0)"><ellipse cx="13" cy="12.498" rx="12" ry="11.998" fill="#fff"/><path d="M25 12.489C25 5.862 19.629.492 13 .492S1 5.863 1 12.488c0 5.988 4.388 10.95 10.125 11.85v-8.382H8.077V12.49h3.048V9.846c0-3.006 1.79-4.667 4.532-4.667 1.314 0 2.687.234 2.687.234v2.95H16.83c-1.49 0-1.955.925-1.955 1.874v2.252h3.328l-.532 3.467h-2.796v8.383C20.612 23.439 25 18.476 25 12.489z" fill="url(#anpaint0_linear)"/></g><defs><linearGradient id="anpaint0_linear" x1="13" y1=".493" x2="13" y2="24.339" gradientUnits="userSpaceOnUse"><stop stop-color="#18ACFE"/><stop offset="1" stop-color="#0062E0"/></linearGradient><clipPath id="anclip0"><path fill="#fff" transform="translate(.5 .5)" d="M0 0h25v25H0z"/></clipPath></defs></svg><svg fill="none" viewBox="0 0 25 17" id="icon-getting-started" xmlns="http://www.w3.org/2000/svg"><path d="M25 6.02c0 .961-1.008 1.783-2.188 1.783h-4.875c.798.694.896 2.025-.308 2.887.698.929.105 2.157-.803 2.535.438 2-1.071 2.9-3.545 2.9-.134 0-.648-.008-.781-.008-3.026.007-3.755-1.264-6.042-1.559-.57-.073-.99-.484-.99-.964v-6.98c.001-.747.519-1.46 1.39-1.784 1.411-.529 4.66-1.995 5.251-3.146C12.49.944 13.153.5 14.063.5c1.67 0 2.82 1.428 2.154 2.722-.175.34-.406.679-.691 1.014h7.287c1.145 0 2.187.836 2.187 1.784zm-20.313.014v7.812c0 .54-.524.977-1.171.977H1.172c-.647 0-1.172-.437-1.172-.977V6.034c0-.54.525-.977 1.172-.977h2.344c.647 0 1.171.438 1.171.977zM3.32 12.87c0-.45-.437-.814-.976-.814-.54 0-.977.364-.977.814 0 .45.437.814.977.814s.976-.365.976-.814z" fill="#FB8B01"/></svg><svg fill="none" viewBox="0 0 24 36" id="icon-hands" xmlns="http://www.w3.org/2000/svg"><path d="M5.902 3.412L5.588 5.33a3.6 3.6 0 00.192 2.188c.031.072.063.143.098.215v.043a.144.144 0 010 .036l2.038 3.964c.04.071-6.785 5.498-6.785 5.498l-.29 2.022a3.602 3.602 0 00.02 1.672l.047.17c.043.148.095.293.157.433.01.035.023.07.039.103l.067.127 1.201 2.33a.74.74 0 01.04.08L5.03 29.27c.214.416.507.785.863 1.086a3.5 3.5 0 001.21.666l2.187.71 1.205 2.335a2.223 2.223 0 001.297 1.095 2.185 2.185 0 001.683-.152l.393-.206 7.853-4.134c.12-.066.234-.141.341-.227l.047-.04c.086-.078.165-.164.236-.257.023-.024.039-.047.059-.071.07-.09.133-.186.188-.286.024-.035.036-.07.055-.107a2.464 2.464 0 00.15-.404c.015-.06.03-.115.043-.174l.027-.163.341-1.966L5.902 3.412z" fill="#C81B00"/><path d="M18.497 11.629h-.04a3.54 3.54 0 00-.392-.147h-.067a3.12 3.12 0 00-.369-.091h-.082a2.155 2.155 0 00-.232-.036.327.327 0 01-.255-.174l-4.53-8.852A3.552 3.552 0 0011.104.85 3.506 3.506 0 009.11.414h-.023c-.106.009-.21.023-.314.044h-.028a3.08 3.08 0 00-.318.075l-.094.024L8.21.62l-.196.068a3.823 3.823 0 00-.287.139H7.7c-.392.216-.74.505-1.025.852v.024c-.047.055-.09.113-.13.174L6.44 2l-.044.071a3.59 3.59 0 00-.282 3.243c.046.122.1.241.16.357l2.038 3.964a.328.328 0 01-.117.424l-.075.06a3.47 3.47 0 00-.302.205l-.079.06c-.027.024-.051.055-.078.083-.083.08-.162.165-.236.254-.024.024-.051.047-.075.075-.031.036-.05.075-.078.111l-.169.25c0 .031-.04.055-.059.087v.02l-.023.055c-.07.127-.131.26-.181.397l-.024.043v.02a.242.242 0 01-.02.048.313.313 0 01-.227.202l-.255.08-.102.039-.11.04c-.122.047-.24.098-.357.158-.118.06-.197.111-.291.17l-.106.076-.161.119-.126.11c-.039.036-.082.068-.117.104-.036.035-.09.09-.134.138l-.09.096-.126.158-.07.091c-.044.06-.079.12-.118.179l-.055.087c-.028.044-.051.091-.075.135a.329.329 0 01-.027.051c0 .028-.032.056-.044.088a1.192 1.192 0 00-.07.162v.024l-.036.08-.058.074a.314.314 0 01-.228.203c-.087.023-.173.055-.26.083l-.117.043-.114.044c-.134.05-.266.108-.393.174a3.56 3.56 0 00-.714.524l-.04.035-.156.167-.09.107a1.28 1.28 0 00-.091.115c-.047.063-.094.123-.137.19l-.032.052a3.596 3.596 0 00-.498 2.624c.056.273.143.54.259.793a.346.346 0 00.027.067l.032.067.03.068 1.195 2.347.035.063 2.623 5.074c.214.416.507.786.864 1.087.356.3.769.526 1.213.665l2.183.694 1.205 2.334c.272.524.738.918 1.297 1.094a2.191 2.191 0 001.683-.15l.345-.182.047-.02 7.853-4.135a2.23 2.23 0 001.084-1.311 2.255 2.255 0 00-.15-1.701l-1.177-2.284a.304.304 0 01-.028-.226l.726-3.032a4.046 4.046 0 00-.341-2.807l-2.03-3.94a3.55 3.55 0 00-1.649-1.585z" fill="#E82728"/><path d="M14.462 14.65v.004l-.005-.005h.005z" fill="#fff"/><path d="M21.791 26.141l-1.39-2.687a.5.5 0 01-.043-.345l.836-3.473a2.667 2.667 0 00-.223-1.84l-2.038-3.963a2.183 2.183 0 00-1.085-1.005 2.155 2.155 0 00-1.471-.077l-5.069-9.784a2.175 2.175 0 00-1.275-1.038 2.153 2.153 0 00-1.63.156 2.187 2.187 0 00-1.059 1.263 2.211 2.211 0 00.116 1.649l3.067 5.946a2.151 2.151 0 00-1.934.562 2.195 2.195 0 00-.646 1.923 2.147 2.147 0 00-2.026.47 2.208 2.208 0 00-.702 1.976 2.148 2.148 0 00-2.24.692 2.198 2.198 0 00-.309 2.345.791.791 0 00.04.083l1.228 2.378c0 .036.036.068.051.1a.165.165 0 01.02.035l.534 1.039 2.05 3.964c.265.515.723.903 1.272 1.078l2.536.793c.122.04.224.127.283.242l1.374 2.66a.837.837 0 001.139.36l8.245-4.36a.86.86 0 00.35-1.142zM8.171 4.621a1.393 1.393 0 01-.092-1.054c.11-.349.351-.64.673-.81.322-.169.697-.202 1.043-.092.346.11.635.354.802.679L15.67 13.1l-1.57.824-.868.456-.224-.428L8.171 4.62zm1.284 7.226c.322-.17.697-.203 1.043-.094.347.11.636.353.806.677l1.225 2.334-1.963 1.039a.888.888 0 00-.393.396l-.867-1.676-.393-.793a1.39 1.39 0 01.542-1.883zm-2.749 2.442a1.362 1.362 0 011.045-.092c.347.11.636.354.805.678l1.229 2.379.204.396c.126.317.131.67.014.991-.116.32-.347.586-.647.745a1.355 1.355 0 01-1.774-.46l-1.068-2.06-.365-.71a1.4 1.4 0 01-.093-1.054c.108-.35.35-.642.67-.813h-.02zm-2.06 6.687l-.967-1.871-.259-.503a1.398 1.398 0 01-.093-1.057c.109-.351.351-.644.674-.814.323-.17.7-.205 1.047-.095.348.11.638.355.806.681l.26.508.765 1.478.204.397c.028.049.05.1.067.154a1.395 1.395 0 01-.08 1.156c-.14.255-.355.46-.616.584a1.359 1.359 0 01-1.581-.3 1.328 1.328 0 01-.228-.318zm16.419 5.601l-8.245 4.36a.04.04 0 01-.055 0l-1.375-2.66a1.29 1.29 0 00-.753-.637l-2.533-.793a1.37 1.37 0 01-.785-.678l-1.877-3.631c.488.101.996.028 1.437-.206a1.952 1.952 0 00.491-.357 1.98 1.98 0 00.153-.163c.097-.11.18-.23.247-.36.044-.081.084-.165.118-.25a2.26 2.26 0 00.15-.805 2.144 2.144 0 002.015-.267 2.203 2.203 0 00.906-1.837 2.45 2.45 0 001.857.792 3.8 3.8 0 001.77-.483l.358-.19.785-.397.133.258c-.698.725-1.57 2.98-1.707 3.987a.4.4 0 00.19.405.392.392 0 00.147.051.39.39 0 00.247-.04.394.394 0 00.212-.297c.146-.927.994-3.104 1.681-3.726a.397.397 0 00.086-.487l-.18-.353-.275-.535a.396.396 0 00-.385-.219.389.389 0 00-.15.044l-.058.032-1.1.579-.34.182c-.35.194-.732.32-1.128.373h-.121a1.692 1.692 0 01-1.48-.603l-.08-.095c-.462-.567-.576-.904-.553-1.007 0 0 0-.02.043-.04l1.178-.618.833-.428 1.523-.793 1.912-1.007a1.362 1.362 0 011.85.587l2.037 3.94c.2.38.26.818.169 1.237l-.817 3.476c-.075.306-.035.63.11.908l1.39 2.692a.04.04 0 01-.013.053.039.039 0 01-.018.006z" fill="#fff"/></svg><svg fill="none" viewBox="0 0 23 23" id="icon-instagram" xmlns="http://www.w3.org/2000/svg"><path d="M5.832 22.919c-1.368-.063-2.11-.29-2.605-.483a4.359 4.359 0 01-1.613-1.05 4.325 4.325 0 01-1.05-1.612c-.192-.494-.42-1.237-.482-2.605C.014 15.691 0 15.247 0 11.501c0-3.746.015-4.189.081-5.669.063-1.368.292-2.11.483-2.605a4.375 4.375 0 011.05-1.614A4.33 4.33 0 013.225.563C3.721.372 4.464.144 5.832.082 7.31.014 7.755 0 11.5 0c3.746 0 4.189.015 5.669.081 1.367.063 2.109.292 2.605.483a4.342 4.342 0 011.613 1.05c.491.49.794.958 1.05 1.612.192.495.42 1.238.482 2.606.067 1.48.081 1.922.081 5.668 0 3.745-.014 4.19-.081 5.67-.063 1.367-.291 2.11-.483 2.604a4.35 4.35 0 01-1.05 1.613c-.49.49-.958.794-1.612 1.05-.495.192-1.238.42-2.605.482-1.48.067-1.923.081-5.67.081-3.744 0-4.188-.013-5.667-.081z" fill="url(#aqpaint0_radial)"/><path d="M5.832 22.919c-1.368-.063-2.11-.29-2.605-.483a4.359 4.359 0 01-1.613-1.05 4.325 4.325 0 01-1.05-1.612c-.192-.494-.42-1.237-.482-2.605C.014 15.691 0 15.247 0 11.501c0-3.746.015-4.189.081-5.669.063-1.368.292-2.11.483-2.605a4.375 4.375 0 011.05-1.614A4.33 4.33 0 013.225.563C3.721.372 4.464.144 5.832.082 7.31.014 7.755 0 11.5 0c3.746 0 4.189.015 5.669.081 1.367.063 2.109.292 2.605.483a4.342 4.342 0 011.613 1.05c.491.49.794.958 1.05 1.612.192.495.42 1.238.482 2.606.067 1.48.081 1.922.081 5.668 0 3.745-.014 4.19-.081 5.67-.063 1.367-.291 2.11-.483 2.604a4.35 4.35 0 01-1.05 1.613c-.49.49-.958.794-1.612 1.05-.495.192-1.238.42-2.605.482-1.48.067-1.923.081-5.67.081-3.744 0-4.188-.013-5.667-.081z" fill="url(#aqpaint1_radial)"/><path d="M8.677 11.549a2.848 2.848 0 115.696 0 2.848 2.848 0 01-5.696 0zm-1.54 0a4.387 4.387 0 108.775 0 4.387 4.387 0 00-8.774 0zm7.924-4.562a1.025 1.025 0 101.026-1.024 1.026 1.026 0 00-1.026 1.024zM8.073 18.504c-.833-.038-1.286-.177-1.587-.294a2.656 2.656 0 01-.983-.639 2.636 2.636 0 01-.639-.982c-.117-.3-.256-.754-.294-1.587-.041-.9-.05-1.171-.05-3.453s.01-2.551.05-3.453c.038-.833.178-1.285.294-1.587.156-.399.34-.683.64-.983.298-.299.583-.484.982-.639.301-.117.754-.256 1.587-.294.9-.041 1.171-.05 3.452-.05 2.28 0 2.552.01 3.453.05.833.038 1.285.178 1.587.294.399.155.683.34.983.64.299.298.484.584.639.982.117.301.256.754.294 1.587.041.902.05 1.171.05 3.453s-.009 2.552-.05 3.453c-.038.833-.178 1.286-.294 1.587-.155.399-.34.684-.64.982a2.657 2.657 0 01-.982.64c-.3.117-.754.255-1.587.293-.9.042-1.171.05-3.453.05s-2.552-.008-3.452-.05zm-.07-15.448c-.91.042-1.532.186-2.075.397a4.194 4.194 0 00-1.513.986 4.172 4.172 0 00-.986 1.513c-.211.543-.355 1.165-.397 2.074-.042.911-.052 1.203-.052 3.523 0 2.32.01 2.612.052 3.523.042.91.186 1.53.397 2.074.218.562.51 1.039.986 1.513a4.2 4.2 0 001.513.986c.544.211 1.165.355 2.074.397.912.041 1.203.052 3.523.052 2.32 0 2.612-.01 3.523-.052.91-.042 1.53-.186 2.074-.397a4.203 4.203 0 001.514-.986c.475-.474.766-.951.985-1.513.211-.543.356-1.165.397-2.074.041-.912.051-1.203.051-3.523 0-2.32-.01-2.612-.051-3.523-.041-.91-.186-1.531-.397-2.074a4.201 4.201 0 00-.985-1.513 4.18 4.18 0 00-1.514-.986c-.543-.211-1.165-.356-2.073-.397-.912-.041-1.203-.052-3.523-.052-2.32 0-2.612.01-3.523.052" fill="#fff"/><defs><radialGradient id="aqpaint0_radial" cx="0" cy="0" r="1" gradientUnits="userSpaceOnUse" gradientTransform="translate(1.489 22.496) scale(29.2015)"><stop offset=".09" stop-color="#FA8F21"/><stop offset=".78" stop-color="#D82D7E"/></radialGradient><radialGradient id="aqpaint1_radial" cx="0" cy="0" r="1" gradientUnits="userSpaceOnUse" gradientTransform="translate(15.931 21.758) scale(25.6976)"><stop offset=".64" stop-color="#8C3AAA" stop-opacity="0"/><stop offset="1" stop-color="#8C3AAA"/></radialGradient></defs></svg><svg fill="none" viewBox="0 0 19 19" id="icon-other-service" xmlns="http://www.w3.org/2000/svg"><g clip-path="url(#arclip0)" stroke="#fff" stroke-miterlimit="10"><path d="M9.501 18.53a9.03 9.03 0 100-18.06 9.03 9.03 0 000 18.06z"/><path d="M17.23 4.83a16.665 16.665 0 01-7.728 1.893A16.72 16.72 0 011.76 4.83M1.746 14.17a16.744 16.744 0 017.756-1.906c2.804 0 5.434.684 7.755 1.905"/><path d="M9.5 18.53a16.61 16.61 0 002.644-9.03A16.61 16.61 0 009.501.47c-.027.04-.04.067-.067.107A16.57 16.57 0 006.857 9.5c0 3.328.967 6.427 2.644 9.03z" stroke-linejoin="round"/></g><defs><clipPath id="arclip0"><path fill="#fff" d="M0 0h19v19H0z"/></clipPath></defs></svg><svg fill="none" viewBox="0 0 19 23" id="icon-paypal" xmlns="http://www.w3.org/2000/svg"><path d="M16.424 5.792a7.374 7.374 0 00-.908-.202 11.54 11.54 0 00-1.832-.133h-5.55a.881.881 0 00-.874.749l-1.181 7.478-.034.218c.078-.492.498-.855.997-.855H9.12c4.08 0 7.274-1.657 8.208-6.45.028-.142.052-.28.073-.416a4.98 4.98 0 00-.977-.39z" fill="#fff"/><path d="M7.257 6.206a.882.882 0 01.875-.748h5.55c.658 0 1.271.043 1.832.133a7.36 7.36 0 011.118.266c.275.092.531.2.767.324.278-1.771-.002-2.978-.96-4.07C15.383.91 13.477.394 11.038.394h-7.08c-.5 0-.924.362-1.001.855L.007 19.944a.608.608 0 00.6.703H4.98l1.098-6.963 1.18-7.478z" fill="#fff"/><path d="M16.948 5.614c-.021.135-.046.273-.073.415-.934 4.794-4.128 6.45-8.208 6.45H6.589c-.499 0-.92.363-.997.855L4.528 20.08l-.3 1.912a.531.531 0 00.524.614h3.684a.887.887 0 00.876-.747l.036-.187.694-4.403.045-.241a.886.886 0 01.875-.75h.551c3.57 0 6.365-1.449 7.182-5.643.34-1.752.164-3.215-.739-4.244a3.523 3.523 0 00-1.008-.777z" fill="#fff" fill-opacity=".5"/></svg><svg fill="none" viewBox="0 0 122 122" id="icon-play" xmlns="http://www.w3.org/2000/svg"><g filter="url(#atfilter0_d)"><path d="M107 52.34c6.667 3.849 6.667 13.471 0 17.32l-61.5 35.507c-6.667 3.849-15-.962-15-8.66V25.493c0-7.698 8.333-12.51 15-8.66L107 52.34z" fill="#E82728"/></g><path d="M101.25 58.835c1.667.962 1.667 3.368 0 4.33L42.75 96.94c-1.667.962-3.75-.24-3.75-2.165v-67.55c0-1.925 2.083-3.127 3.75-2.165l58.5 33.775z" stroke="#fff" stroke-width="3"/><defs><filter id="atfilter0_d" x="30.5" y="15.478" width="81.5" height="95.044" filterUnits="userSpaceOnUse" color-interpolation-filters="sRGB"><feFlood flood-opacity="0" result="BackgroundImageFix"/><feColorMatrix in="SourceAlpha" values="0 0 0 0 0 0 0 0 0 0 0 0 0 0 0 0 0 0 127 0" result="hardAlpha"/><feOffset dy="4"/><feColorMatrix values="0 0 0 0 0.784314 0 0 0 0 0.105882 0 0 0 0 0 0 0 0 1 0"/><feBlend in2="BackgroundImageFix" result="effect1_dropShadow"/><feBlend in="SourceGraphic" in2="effect1_dropShadow" result="shape"/></filter></defs></svg><svg fill="none" viewBox="0 0 22 22" id="icon-status-01" xmlns="http://www.w3.org/2000/svg"><path d="M11 19.964c4.886 0 8.847-4.013 8.847-8.964 0-4.95-3.961-8.964-8.848-8.964-4.886 0-8.847 4.013-8.847 8.964 0 4.95 3.961 8.964 8.848 8.964z" fill="#45D19D"/><path d="M11 20.964c5.45 0 9.847-4.473 9.847-9.964 0-5.49-4.397-9.964-9.848-9.964-5.45 0-9.847 4.473-9.847 9.964 0 5.49 4.397 9.964 9.848 9.964z" stroke="#020A36" stroke-opacity=".5" stroke-width="2"/><path d="M11 14.822c2.083 0 3.772-1.711 3.772-3.822 0-2.11-1.689-3.822-3.772-3.822C8.917 7.178 7.23 8.89 7.23 11c0 2.11 1.688 3.822 3.771 3.822z" fill="#8BF8BD"/></svg><svg fill="none" viewBox="0 0 24 24" id="icon-status-02" xmlns="http://www.w3.org/2000/svg"><path d="M12 2.879L2.998 12 12 21.121 21.003 12 12 2.879z" fill="#E82728"/><path d="M12.703 2.167L12 1.455l-.702.712-9.002 9.121-.703.712.703.712 9.002 9.12.702.713.703-.712 9.002-9.121.702-.712-.702-.712-9.002-9.12z" stroke="#020A36" stroke-opacity=".5" stroke-width="2"/><path d="M11.974 8.536L8.554 12l3.42 3.464L15.394 12l-3.42-3.464z" fill="#FF8D74"/></svg><svg fill="none" viewBox="0 0 30 25" id="icon-status-03" xmlns="http://www.w3.org/2000/svg"><path d="M7.657 2.825l-4.86 5.961 12.228 12.39L27.2 8.785l-4.809-5.961H7.657z" fill="#FEDA3D"/><path d="M7.657 1.825h-.475l-.3.368-4.86 5.961-.567.696.63.639 12.228 12.389.713.723.712-.724 12.176-12.39.625-.635-.56-.694-4.809-5.961-.3-.372H7.657z" stroke="#020A36" stroke-opacity=".5" stroke-width="2"/><path d="M2.797 8.786l4.86-5.961h14.735l4.81 5.961H2.796z" fill="#FFED9F"/></svg><svg fill="none" viewBox="0 0 72 77" id="icon-success-bg" xmlns="http://www.w3.org/2000/svg"><path d="M71.695 35.227C69.358 17.573 54.254 3.96 36 3.96S2.675 17.573.305 35.227H0v4.822c0 19.928 16.12 36.089 36 36.089s36-16.16 36-36.09v-4.82h-.305z" fill="#04136B"/><path d="M36 72.179c19.882 0 36-16.158 36-36.09C72 16.159 55.882 0 36 0S0 16.158 0 36.09C0 56.02 16.118 72.178 36 72.178z" fill="#45D19D"/><path d="M36 65.321c16.103 0 29.159-13.087 29.159-29.231 0-16.145-13.056-29.232-29.16-29.232S6.84 19.945 6.84 36.09C6.84 52.233 19.896 65.32 36 65.32z" stroke="#010624" stroke-width="3.822" stroke-miterlimit="10" stroke-linecap="round"/><path d="M19.404 37.142l10.363 10.389 22.826-22.883" stroke="#010624" stroke-width="4" stroke-miterlimit="10" stroke-linecap="round" stroke-linejoin="round"/></svg><svg fill="none" viewBox="0 0 14 11" id="icon-success-black" xmlns="http://www.w3.org/2000/svg"><path d="M13 1l-8.25 9L1 5.91" stroke="#010624" stroke-width="2" stroke-linecap="round" stroke-linejoin="round"/></svg><svg fill="none" viewBox="0 0 79 53" id="icon-success-green" xmlns="http://www.w3.org/2000/svg"><g clip-path="url(#azclip0)" stroke-width="9.952" stroke-miterlimit="10" stroke-linecap="round" stroke-linejoin="round"><path d="M12.707 29.627l18.22 18.297L73.875 4.976" stroke="#04136B"/><path d="M4.977 29.627l18.22 18.297L63.389 7.732" stroke="#45D19D"/></g><defs><clipPath id="azclip0"><path fill="#fff" d="M0 0h78.852v52.9H0z"/></clipPath></defs></svg><svg fill="none" viewBox="0 0 20 21" id="icon-tiktok" xmlns="http://www.w3.org/2000/svg"><path fill-rule="evenodd" clip-rule="evenodd" d="M14.757 7.58a8.248 8.248 0 004.81 1.54V5.667c-.339 0-.677-.035-1.01-.105v2.716a8.25 8.25 0 01-4.81-1.539v7.042a6.38 6.38 0 01-6.382 6.378 6.354 6.354 0 01-3.553-1.079 6.364 6.364 0 004.563 1.92 6.38 6.38 0 006.382-6.38v-7.04zm1.246-3.48a4.808 4.808 0 01-1.246-2.817V.84h-.958a4.83 4.83 0 002.204 3.26zM6.042 16.377a2.918 2.918 0 013.21-4.547V8.303a6.44 6.44 0 00-1.011-.058v2.746a2.918 2.918 0 00-2.2 5.387z" fill="#EE1D52"/><path fill-rule="evenodd" clip-rule="evenodd" d="M13.747 6.74a8.25 8.25 0 004.81 1.539V5.563a4.83 4.83 0 01-2.553-1.464A4.831 4.831 0 0113.8.84h-2.515v13.783a2.919 2.919 0 01-5.243 1.756 2.917 2.917 0 012.199-5.387V8.245a6.38 6.38 0 00-4.428 10.836 6.354 6.354 0 003.552 1.079 6.38 6.38 0 006.382-6.378V6.74z" fill="#fff"/><path fill-rule="evenodd" clip-rule="evenodd" d="M18.556 5.563v-.734a4.812 4.812 0 01-2.554-.73 4.826 4.826 0 002.554 1.464zM13.798.84a4.89 4.89 0 01-.053-.396V0h-3.472v13.782a2.918 2.918 0 01-4.233 2.596 2.919 2.919 0 005.243-1.756V.84h2.515zM8.24 8.245v-.781a6.38 6.38 0 00-7.257 6.318 6.37 6.37 0 002.829 5.3A6.38 6.38 0 018.24 8.245z" fill="#69C9D0"/></svg><svg fill="none" viewBox="0 0 26 25" id="icon-twitch" xmlns="http://www.w3.org/2000/svg"><path d="M22.192 2.96H4.805v16.079h4.819v3.366l2.736-2.736h5.086l4.746-4.747V2.96z" fill="#fff"/><path d="M4.02 2.063L2.55 5.816v15.347h5.225v2.773h2.94l2.773-2.773h4.248l5.713-5.713V2.062H4.021zM21.492 14.47l-3.266 3.266H13l-2.773 2.774v-2.774h-4.41V4.021h15.674V14.47zm-3.266-6.695v5.708h-1.958V7.775h1.958zm-5.225 0v5.708h-1.958V7.775H13z" fill="#9147FF"/></svg><svg fill="none" viewBox="0 0 24 24" id="icon-twitter" xmlns="http://www.w3.org/2000/svg"><path d="M12 24c6.627 0 12-5.373 12-12S18.627 0 12 0 0 5.373 0 12s5.373 12 12 12z" fill="#2DAAE1"/><path d="M19.053 7.624a5.777 5.777 0 01-1.662.456 2.902 2.902 0 001.273-1.6 5.781 5.781 0 01-1.838.702 2.893 2.893 0 00-4.931 2.64A8.216 8.216 0 015.93 6.797a2.892 2.892 0 00.895 3.863 2.881 2.881 0 01-1.31-.361v.036c0 1.402.997 2.571 2.32 2.837a2.88 2.88 0 01-1.306.05 2.897 2.897 0 002.703 2.01 5.806 5.806 0 01-4.285 1.198 8.19 8.19 0 004.436 1.3c5.323 0 8.233-4.409 8.233-8.232 0-.126-.002-.25-.008-.375a5.895 5.895 0 001.445-1.5z" fill="#fff"/></svg><svg fill="none" viewBox="0 0 65 44" id="icon-verification" xmlns="http://www.w3.org/2000/svg"><rect x="1" y="1" width="63" height="42" rx="9" fill="#0620B3"/><path d="M35 18h22M35 30h22M35 24h11M52 24h5M2 9h62" stroke="#fff" stroke-width="2" stroke-linecap="round"/><path d="M26 35v-2a4 4 0 00-4-4h-8a4 4 0 00-4 4v2M18 25a4 4 0 100-8 4 4 0 000 8z" stroke="#fff" stroke-width="2" stroke-linecap="round" stroke-linejoin="round"/><rect x="1" y="1" width="63" height="42" rx="9" stroke="#fff" stroke-width="2"/></svg><svg fill="none" viewBox="0 0 22 23" id="icon-window" xmlns="http://www.w3.org/2000/svg"><path d="M.063 3.908l8.964-1.235v8.662H.063V3.908zm0 15.85l8.964 1.235V12.44H.063v7.319zm9.95 1.367l11.925 1.645V12.438H10.014v8.687zm0-18.584v8.794h11.925V.895L10.014 2.542z" fill="#fff"/></svg><svg fill="none" viewBox="0 0 25 25" id="icon-youtube" xmlns="http://www.w3.org/2000/svg"><path fill="#fff" d="M6.64 7.29h13.464v10.801H6.64z"/><path d="M24.208 7.108a2.978 2.978 0 00-2.095-2.11C20.264 4.5 12.852 4.5 12.852 4.5s-7.412 0-9.261.499a2.979 2.979 0 00-2.096 2.109C1 8.968 1 12.85 1 12.85s0 3.882.495 5.743a2.934 2.934 0 002.096 2.075c1.849.499 9.26.499 9.26.499s7.413 0 9.262-.499a2.934 2.934 0 002.095-2.075c.496-1.861.496-5.743.496-5.743s0-3.882-.496-5.742zm-13.78 9.267v-7.05l6.195 3.525-6.195 3.525z" fill="red"/></svg><svg fill="none" viewBox="0 0 180 60" id="tooltip-bg" xmlns="http://www.w3.org/2000/svg"><path d="M2 12C2 6.477 6.477 2 12 2h156c5.523 0 10 4.477 10 10v27c0 5.523-4.477 10-10 10h-67.5l-9 8-9-8H12C6.477 49 2 44.523 2 39V12z" fill="#010624" fill-opacity=".7"/><path d="M90.836 57.747l.664.591.664-.59L100.88 50H168c6.075 0 11-4.925 11-11V12c0-6.075-4.925-11-11-11H12C5.925 1 1 5.925 1 12v27c0 6.075 4.925 11 11 11h70.12l8.716 7.747z" stroke="#fff" stroke-opacity=".1" stroke-width="2"/></svg></svg>