<svg width="165" height="58" fill="none" xmlns="http://www.w3.org/2000/svg"><path fill-rule="evenodd" clip-rule="evenodd" d="M96.264 25.393v-3.886l-3.827-3.818H80.428v19.25h12.56l3.82-3.856v-4.3l-2.375-1.931 1.831-1.459zm-6.105-.127h-3.722v-2.932h3.722v2.932zm.372 7.028h-4.094v-3.21h4.094v3.21zm-26.75 1.06v-8.269l3.551-3.585h7.639l3.581 3.593v8.268l-3.551 3.586h-7.669l-3.551-3.593zm6.008-1.098h2.725V26.19H69.79v6.066zm-21.837 8.54v-4.961h7.915v-1.098h-5.212l-3.522-3.585v-6.059l3.544-3.585h11.168v14.77l-4.467 4.51-9.426.008zm5.212-14.327v3.585h2.732V26.47h-2.732zm60.023-4.961V36.94h-10.922l-3.82-3.856V21.508h6.002v10.2h2.732v-10.2h6.008zm16.923 15.431V17.69h-6.008v3.818h-4.914l-4.095 4.134v7.164l4.095 4.134h10.922zm-6.03-4.968h-2.979v-5.503h2.979v5.503zm22.968-14.282v19.25h-10.937l-4.095-4.134v-7.163l4.095-4.135h4.914V17.69h6.023zm-9.024 14.282h2.978v-5.503h-2.978v5.503zm11.19 3.864v4.961h10.863l4.281-19.288h-6.083l-1.362 8.546h-1.147l-1.37-8.546h-6.142l2.978 13.23h4.78l-.194 1.097h-6.604z" fill="#fff"/><path d="M9.4 5.005l-.522 3.193a5.99 5.99 0 00.32 3.64c.052.119.104.238.163.356v.073a.24.24 0 010 .06l3.39 6.595c.066.118-11.288 9.147-11.288 9.147L.98 31.433a5.992 5.992 0 00.033 2.783l.078.284c.072.245.159.485.261.719.018.058.04.116.066.171l.11.211 2 3.878c.024.043.046.087.065.132l4.357 8.416a5.885 5.885 0 001.436 1.806c.592.5 1.276.877 2.013 1.109l3.639 1.18 2.005 3.885a3.7 3.7 0 00.899 1.128 3.661 3.661 0 002.684.85c.48-.043.948-.182 1.375-.408l.654-.343 13.065-6.879c.2-.108.39-.234.568-.376l.078-.066a3.38 3.38 0 00.392-.429c.04-.04.066-.079.098-.118.117-.15.221-.309.314-.475.039-.06.059-.119.091-.178a4.08 4.08 0 00.248-.673c.027-.099.053-.191.072-.29l.046-.27.568-3.272L9.4 5.005z" fill="#C81B00"/><path d="M30.356 18.677h-.065a5.88 5.88 0 00-.653-.244h-.111a5.188 5.188 0 00-.614-.151h-.137a3.61 3.61 0 00-.386-.06.545.545 0 01-.425-.29L20.427 3.205a5.91 5.91 0 00-2.369-2.46 5.833 5.833 0 00-3.32-.726h-.04c-.175.014-.35.038-.523.073h-.045a5.129 5.129 0 00-.53.125l-.156.04-.203.105-.326.112c-.164.073-.32.145-.477.23h-.046a5.91 5.91 0 00-1.705 1.419v.04a3.04 3.04 0 00-.215.29l-.177.204-.072.119a5.975 5.975 0 00-.47 5.395 5.3 5.3 0 00.268.593l3.39 6.596a.545.545 0 01-.196.706l-.124.098c-.173.106-.341.22-.503.343l-.13.1c-.046.039-.085.092-.131.138a5.287 5.287 0 00-.392.422c-.04.04-.085.079-.124.125-.053.06-.085.125-.131.185l-.28.415c0 .053-.066.093-.099.146v.032l-.039.093a4.627 4.627 0 00-.3.66l-.04.072v.033a.405.405 0 01-.032.079.521.521 0 01-.38.336l-.424.132-.17.066-.183.066a6.8 6.8 0 00-.594.264c-.196.099-.327.185-.483.284l-.177.125-.268.198-.209.184c-.065.06-.137.113-.196.172-.058.06-.15.152-.222.23l-.15.159-.21.264-.117.152c-.072.099-.13.197-.196.296l-.091.145c-.046.073-.085.152-.124.225a.547.547 0 01-.046.085c0 .047-.052.093-.072.145a1.994 1.994 0 00-.117.27v.04l-.06.132-.097.126a.521.521 0 01-.379.336c-.144.04-.287.092-.431.139l-.196.072-.19.073a5.41 5.41 0 00-.653.29c-.43.24-.83.532-1.189.87l-.065.06-.261.277-.15.178c-.054.06-.104.125-.15.191-.08.106-.158.205-.23.317l-.052.085a5.983 5.983 0 00-.83 4.367c.094.454.239.897.432 1.319a.576.576 0 00.045.112l.053.112.052.112 1.986 3.904.059.106 4.363 8.442a5.881 5.881 0 001.438 1.808c.594.5 1.28.877 2.018 1.107l3.632 1.154 2.005 3.885a3.687 3.687 0 002.158 1.82c.93.294 1.937.204 2.8-.25l.576-.304.078-.033 13.065-6.879a3.71 3.71 0 001.803-2.181 3.752 3.752 0 00-.248-2.831l-1.96-3.799a.505.505 0 01-.046-.376l1.208-5.045a6.732 6.732 0 00-.568-4.67L33.1 21.315a5.904 5.904 0 00-2.744-2.638z" fill="#E82728"/><path d="M23.643 23.702v.008l-.009-.008h.009z" fill="#fff"/><path d="M35.837 42.823l-2.312-4.471a.831.831 0 01-.072-.574L34.844 32a4.437 4.437 0 00-.372-3.06l-3.39-6.595a3.632 3.632 0 00-1.806-1.673 3.587 3.587 0 00-2.447-.128L18.396 4.267a3.62 3.62 0 00-2.121-1.728 3.581 3.581 0 00-2.713.26A3.638 3.638 0 0011.8 4.9a3.679 3.679 0 00.193 2.745l5.102 9.893a3.58 3.58 0 00-3.217.935 3.68 3.68 0 00-1.075 3.2 3.574 3.574 0 00-3.372.781 3.642 3.642 0 00-1 1.494 3.674 3.674 0 00-.168 1.794 3.573 3.573 0 00-2.03.024 3.595 3.595 0 00-1.697 1.128 3.672 3.672 0 00-.513 3.9c.02.048.041.094.066.139l2.044 3.957c0 .06.059.112.085.165a.271.271 0 01.033.06l.888 1.727 3.41 6.596a3.621 3.621 0 002.117 1.793l4.22 1.32c.203.066.372.21.47.402l2.286 4.425c.173.333.47.584.824.696.356.113.74.078 1.07-.096l13.719-7.254a1.43 1.43 0 00.581-1.9zM13.177 7.017a2.318 2.318 0 01-.153-1.752 2.292 2.292 0 011.119-1.348 2.256 2.256 0 011.735-.154c.576.183 1.056.59 1.335 1.13l8.44 16.231-2.613 1.372-1.444.759-.372-.713-8.048-15.525zm2.135 12.023a2.266 2.266 0 011.737-.155 2.291 2.291 0 011.34 1.125l2.038 3.884-3.266 1.728a1.477 1.477 0 00-.653.66l-1.444-2.79-.653-1.319a2.31 2.31 0 01.901-3.133zm-4.572 4.063a2.267 2.267 0 011.737-.153 2.292 2.292 0 011.34 1.13l2.044 3.956.34.66c.21.527.218 1.115.024 1.648a2.288 2.288 0 01-1.076 1.24 2.254 2.254 0 01-1.622.191 2.274 2.274 0 01-1.33-.955l-1.777-3.43-.608-1.18a2.328 2.328 0 01-.154-1.754c.18-.582.58-1.068 1.114-1.353h-.033zM7.31 34.229l-1.607-3.113-.431-.837a2.327 2.327 0 01-.155-1.759 2.301 2.301 0 011.122-1.354 2.265 2.265 0 011.742-.157 2.29 2.29 0 011.341 1.133l.431.844 1.274 2.46.34.66c.045.082.082.168.11.257a2.321 2.321 0 01-.134 1.923c-.23.425-.59.765-1.024.972a2.26 2.26 0 01-2.63-.501 2.209 2.209 0 01-.379-.528zm27.319 9.32L20.91 50.804a.065.065 0 01-.092 0l-2.286-4.426a2.146 2.146 0 00-1.255-1.062l-4.213-1.319a2.28 2.28 0 01-1.306-1.128l-3.123-6.041a3.549 3.549 0 002.391-.343 3.254 3.254 0 00.817-.594c.09-.085.175-.175.254-.27.16-.183.299-.384.412-.6.073-.135.138-.273.196-.416a3.758 3.758 0 00.248-1.339 3.568 3.568 0 003.353-.445c.48-.346.869-.805 1.131-1.338a3.663 3.663 0 00.376-1.719 4.043 4.043 0 003.09 1.32 6.323 6.323 0 002.946-.805l.595-.317 1.306-.66.222.43c-1.163 1.206-2.613 4.96-2.841 6.634a.665.665 0 00.315.674c.076.045.16.074.246.085.141.024.286 0 .412-.066a.655.655 0 00.353-.495c.241-1.543 1.652-5.164 2.796-6.2a.66.66 0 00.143-.81l-.3-.588-.457-.89a.658.658 0 00-.64-.363.647.647 0 00-.249.073l-.098.052-1.829.963-.568.304a5.296 5.296 0 01-1.875.62h-.203a2.817 2.817 0 01-1.354-.193 2.843 2.843 0 01-1.108-.81l-.131-.158c-.77-.943-.96-1.504-.921-1.675 0 0 0-.033.072-.066l1.96-1.03 1.384-.711 2.535-1.32 3.181-1.675a2.265 2.265 0 013.077.976l3.39 6.556c.333.63.433 1.36.281 2.058l-1.358 5.784a2.155 2.155 0 00.182 1.51l2.313 4.479a.066.066 0 01-.052.099z" fill="#fff"/></svg>