<svg width="54" height="83" fill="none" xmlns="http://www.w3.org/2000/svg"><path d="M12.132 8.013l-.74 4.498a8.4 8.4 0 00.453 5.13c.074.167.148.334.231.502v.102a.335.335 0 010 .083l4.8 9.294c.093.167-15.983 12.89-15.983 12.89l-.685 4.74a8.402 8.402 0 000 3.717c.02.067.035.136.046.205l.111.4c.102.345.225.683.37 1.012.026.083.057.164.093.242l.157.297 2.83 5.465c.035.06.066.122.093.186l6.17 11.858a8.302 8.302 0 002.033 2.546 8.259 8.259 0 002.851 1.562l5.152 1.663 2.84 5.474a5.217 5.217 0 003.054 2.569 5.174 5.174 0 003.967-.357l.925-.483 18.5-9.693c.284-.153.553-.33.805-.53l.111-.093c.202-.185.388-.387.555-.604.056-.056.093-.112.139-.167.165-.212.313-.435.444-.67.055-.083.083-.167.13-.25a5.65 5.65 0 00.351-.948c.037-.14.074-.27.102-.41l.064-.38.805-4.61-40.774-55.24z" fill="#C81B00"/><path d="M41.81 27.278h-.093a8.319 8.319 0 00-.925-.343h-.157a7.367 7.367 0 00-.87-.214h-.194a5.13 5.13 0 00-.546-.084.775.775 0 01-.601-.409L27.749 5.476a8.346 8.346 0 00-3.354-3.466A8.293 8.293 0 0019.692.987h-.055c-.248.02-.495.054-.74.102h-.065a7.276 7.276 0 00-.749.177l-.222.056-.287.148-.462.158a9.015 9.015 0 00-.676.326h-.064a8.334 8.334 0 00-2.415 1.998v.055a4.23 4.23 0 00-.305.41l-.25.287-.101.168a8.391 8.391 0 00-.666 7.602c.109.286.235.566.379.836l4.8 9.294a.766.766 0 01-.277.994l-.176.14a8.18 8.18 0 00-.712.483l-.185.14c-.065.055-.12.13-.185.194-.195.188-.38.387-.555.595-.055.056-.12.112-.176.177-.074.083-.12.176-.185.26l-.397.585c0 .075-.093.13-.14.205v.046l-.055.13a6.513 6.513 0 00-.425.93l-.056.102v.047a.563.563 0 01-.046.111.734.734 0 01-.536.474l-.602.186-.24.093-.26.093a9.646 9.646 0 00-.84.372c-.278.139-.463.26-.685.4l-.25.176-.38.279-.295.26c-.093.083-.195.158-.278.241-.083.084-.213.214-.314.326l-.213.223-.296.371-.167.214c-.101.14-.185.279-.277.418l-.13.205c-.064.102-.12.214-.175.316a.772.772 0 01-.065.12c0 .066-.074.13-.102.205-.065.123-.12.25-.166.381v.056l-.084.186-.138.176a.735.735 0 01-.537.474c-.203.056-.407.13-.61.196l-.278.102-.268.102a7.699 7.699 0 00-.925.409 8.38 8.38 0 00-1.684 1.227l-.092.083-.37.39-.213.252a3.02 3.02 0 00-.213.269c-.11.149-.222.288-.324.446l-.074.12A8.397 8.397 0 00.99 43.738c.132.641.337 1.265.61 1.859a.811.811 0 00.065.158l.074.158.074.158 2.812 5.502.083.148 6.18 11.896a8.291 8.291 0 002.036 2.547 8.246 8.246 0 002.857 1.56l5.143 1.627 2.84 5.474a5.214 5.214 0 003.055 2.565 5.186 5.186 0 003.965-.353l.814-.428.111-.046 18.5-9.693a5.235 5.235 0 002.554-3.075 5.264 5.264 0 00-.352-3.988l-2.775-5.353a.71.71 0 01-.065-.53l1.712-7.11a9.445 9.445 0 00-.805-6.58l-4.782-9.237a8.342 8.342 0 00-3.886-3.718z" fill="#E82728"/><path d="M32.298 34.36v.008l-.009-.009h.009z" fill="#fff"/><path d="M49.567 61.302L46.293 55a1.166 1.166 0 01-.102-.809l1.97-8.141a6.224 6.224 0 00-.527-4.312l-4.8-9.294a5.134 5.134 0 00-2.557-2.357 5.102 5.102 0 00-3.466-.18L24.87 6.972a5.12 5.12 0 00-3.003-2.434 5.094 5.094 0 00-3.841.366 5.133 5.133 0 00-2.494 2.959 5.162 5.162 0 00.273 3.867l7.225 13.94a5.093 5.093 0 00-4.555 1.318 5.162 5.162 0 00-1.523 4.51 5.083 5.083 0 00-4.774 1.1 5.152 5.152 0 00-1.654 4.633 5.084 5.084 0 00-5.278 1.623 5.141 5.141 0 00-.726 5.496c.027.067.058.132.093.195l2.895 5.576c0 .084.083.158.12.233a.384.384 0 01.046.084l1.258 2.434 4.83 9.294a5.121 5.121 0 002.996 2.528l5.976 1.858c.287.094.527.297.666.567l3.237 6.236a1.98 1.98 0 002.683.846l19.425-10.223a2.003 2.003 0 00.823-2.676zM17.48 10.847a3.252 3.252 0 01-.216-2.469 3.234 3.234 0 011.585-1.899 3.21 3.21 0 012.457-.217 3.227 3.227 0 011.89 1.593l11.951 22.871-3.7 1.933-2.044 1.069-.527-1.004L17.48 10.847zm3.024 16.942a3.224 3.224 0 012.46-.22 3.24 3.24 0 011.897 1.586l2.886 5.474-4.625 2.435c-.4.202-.724.528-.925.93l-2.044-3.932-.925-1.858a3.245 3.245 0 011.276-4.415zm-6.475 5.725a3.224 3.224 0 012.461-.216 3.24 3.24 0 011.896 1.591l2.895 5.577.481.929c.298.743.31 1.57.035 2.323a3.23 3.23 0 01-1.524 1.746 3.206 3.206 0 01-4.18-1.077l-2.517-4.832-.86-1.664a3.266 3.266 0 01-.219-2.47 3.249 3.249 0 011.579-1.907h-.047zM9.172 49.192l-2.276-4.386-.61-1.18a3.264 3.264 0 01-.22-2.479 3.247 3.247 0 011.589-1.908c.76-.4 1.648-.479 2.466-.22a3.239 3.239 0 011.9 1.595l.61 1.19 1.804 3.466.481.93c.064.115.117.236.158.362a3.256 3.256 0 01-.19 2.71 3.235 3.235 0 01-1.452 1.37 3.215 3.215 0 01-3.724-.706 3.112 3.112 0 01-.536-.744zm38.684 13.132L28.431 72.547a.093.093 0 01-.13 0l-3.237-6.236a3.027 3.027 0 00-1.776-1.497l-5.967-1.858a3.223 3.223 0 01-1.85-1.59l-4.421-8.512a5.048 5.048 0 003.385-.483c.216-.111.424-.238.62-.382a6.61 6.61 0 00.537-.455c.127-.12.247-.247.36-.38.228-.258.423-.542.583-.847.104-.19.196-.385.278-.585a5.269 5.269 0 00.352-1.887 5.075 5.075 0 004.747-.627 5.114 5.114 0 001.602-1.886 5.141 5.141 0 00.532-2.422 5.773 5.773 0 004.376 1.86 8.986 8.986 0 004.171-1.135l.842-.446 1.85-.93.315.605c-1.647 1.7-3.7 6.989-4.024 9.35a.934.934 0 00.447.949.923.923 0 00.348.119.92.92 0 00.583-.093.927.927 0 00.5-.697c.342-2.175 2.34-7.277 3.959-8.736a.93.93 0 00.203-1.143l-.425-.827-.648-1.255a.929.929 0 00-.907-.512.923.923 0 00-.35.103l-.14.075-2.59 1.357-.804.427a7.525 7.525 0 01-2.655.874h-.287a4.007 4.007 0 01-3.487-1.413l-.185-.223c-1.092-1.329-1.36-2.119-1.305-2.36 0 0 0-.047.102-.093l2.775-1.45 1.961-1.004 3.59-1.859 4.504-2.36a3.218 3.218 0 014.357 1.375l4.8 9.238c.472.888.613 1.916.399 2.9l-1.924 8.15a3.024 3.024 0 00.259 2.128l3.274 6.31a.093.093 0 01-.074.14z" fill="#fff"/></svg>