<?xml version="1.0" encoding="utf-8"?><svg viewBox="0 0 122 122" xmlns="http://www.w3.org/2000/svg" xmlns:xlink="http://www.w3.org/1999/xlink"><style>:root>svg{display:none}:root>svg:target{display:block}</style><svg fill="none" viewBox="0 0 15 14" id="arrow-go-to" xmlns="http://www.w3.org/2000/svg"><path d="M5.953 1.09l.694-.693a.747.747 0 011.06 0l6.074 6.072a.747.747 0 010 1.06l-6.075 6.074a.747.747 0 01-1.06 0l-.693-.694a.75.75 0 01.013-1.072L9.73 8.25H.75A.748.748 0 010 7.5v-1c0-.416.334-.75.75-.75h8.981L5.966 2.162a.745.745 0 01-.013-1.071z" fill="#010624"/></svg><svg fill="none" viewBox="0 0 6 12" id="arrow-next" xmlns="http://www.w3.org/2000/svg"><path d="M1 11l4-4.667-4-4.666" stroke="#fff" stroke-width="2" stroke-linecap="round" stroke-linejoin="round"/></svg><svg fill="none" viewBox="0 0 13 9" id="icon-checkbox" xmlns="http://www.w3.org/2000/svg"><path d="M11.167 1L4.75 7.417 1.833 4.5" stroke="#031059" stroke-width="2" stroke-linecap="round" stroke-linejoin="round"/></svg><svg fill="none" viewBox="0 0 20 17" id="icon-checkbox-green" xmlns="http://www.w3.org/2000/svg"><path d="M18 2.846L7 14.27 2 9.077" stroke="#45D19D" stroke-width="4" stroke-linecap="round" stroke-linejoin="round"/></svg><svg fill="none" viewBox="0 0 30 30" id="icon-close" xmlns="http://www.w3.org/2000/svg"><path d="M22.5 7.5l-15 15M7.5 7.5l15 15" stroke="#fff" stroke-width="3" stroke-linecap="round" stroke-linejoin="round"/></svg><svg fill="none" viewBox="0 0 13 13" id="icon-diamonds" xmlns="http://www.w3.org/2000/svg"><path d="M10.61 10.663l1.81-6.525-.696 5.317-1.115 1.208z" fill="#D88500"/><path d="M3.486 10.642l7.124.02-4.333 2.312-2.79-2.332z" fill="#FFB133"/><path d="M3.487 10.642l2.79 2.332-5.579-3.92 2.789 1.588z" fill="#D88500"/><path d="M1.117 4.094l2.37 6.548L.698 9.055l.42-4.96z" fill="#F7A400"/><path d="M7.383 4.915L6.608.203l5.813 3.935-5.037.777z" fill="#F5A200"/><path d="M10.61 10.663L7.383 4.915l5.037-.777-1.81 6.525z" fill="#FCC22D"/><path d="M3.486 10.642l3.897-5.728 3.227 5.748-7.124-.02z" fill="#FFD854"/><path d="M1.117 4.094l6.265.82-3.896 5.728-2.369-6.548z" fill="#FFE57C"/><path d="M7.382 4.915l-6.265-.82L6.607.202l.775 4.712z" fill="#FEC900"/></svg><svg fill="none" viewBox="0 0 26 25" id="icon-facebook" xmlns="http://www.w3.org/2000/svg"><g clip-path="url(#gclip0)"><ellipse cx="13" cy="12.498" rx="12" ry="11.998" fill="#fff"/><path d="M25 12.489C25 5.862 19.629.492 13 .492S1 5.863 1 12.488c0 5.988 4.388 10.95 10.125 11.85v-8.382H8.077V12.49h3.048V9.846c0-3.006 1.79-4.667 4.532-4.667 1.314 0 2.687.234 2.687.234v2.95H16.83c-1.49 0-1.955.925-1.955 1.874v2.252h3.328l-.532 3.467h-2.796v8.383C20.612 23.439 25 18.476 25 12.489z" fill="url(#gpaint0_linear)"/></g><defs><linearGradient id="gpaint0_linear" x1="13" y1=".493" x2="13" y2="24.339" gradientUnits="userSpaceOnUse"><stop stop-color="#18ACFE"/><stop offset="1" stop-color="#0062E0"/></linearGradient><clipPath id="gclip0"><path fill="#fff" transform="translate(.5 .5)" d="M0 0h25v25H0z"/></clipPath></defs></svg><svg fill="none" viewBox="0 0 25 17" id="icon-getting-started" xmlns="http://www.w3.org/2000/svg"><path d="M25 6.02c0 .961-1.008 1.783-2.188 1.783h-4.875c.798.694.896 2.025-.308 2.887.698.929.105 2.157-.803 2.535.438 2-1.071 2.9-3.545 2.9-.134 0-.648-.008-.781-.008-3.026.007-3.755-1.264-6.042-1.559-.57-.073-.99-.484-.99-.964v-6.98c.001-.747.519-1.46 1.39-1.784 1.411-.529 4.66-1.995 5.251-3.146C12.49.944 13.153.5 14.063.5c1.67 0 2.82 1.428 2.154 2.722-.175.34-.406.679-.691 1.014h7.287c1.145 0 2.187.836 2.187 1.784zm-20.313.014v7.812c0 .54-.524.977-1.171.977H1.172c-.647 0-1.172-.437-1.172-.977V6.034c0-.54.525-.977 1.172-.977h2.344c.647 0 1.171.438 1.171.977zM3.32 12.87c0-.45-.437-.814-.976-.814-.54 0-.977.364-.977.814 0 .45.437.814.977.814s.976-.365.976-.814z" fill="#FB8B01"/></svg><svg fill="none" viewBox="0 0 24 36" id="icon-hands" xmlns="http://www.w3.org/2000/svg"><path d="M5.902 3.412L5.588 5.33a3.6 3.6 0 00.192 2.188c.031.072.063.143.098.215v.043a.144.144 0 010 .036l2.038 3.964c.04.071-6.785 5.498-6.785 5.498l-.29 2.022a3.602 3.602 0 00.02 1.672l.047.17c.043.148.095.293.157.433.01.035.023.07.039.103l.067.127 1.201 2.33a.74.74 0 01.04.08L5.03 29.27c.214.416.507.785.863 1.086a3.5 3.5 0 001.21.666l2.187.71 1.205 2.335a2.223 2.223 0 001.297 1.095 2.185 2.185 0 001.683-.152l.393-.206 7.853-4.134c.12-.066.234-.141.341-.227l.047-.04c.086-.078.165-.164.236-.257.023-.024.039-.047.059-.071.07-.09.133-.186.188-.286.024-.035.036-.07.055-.107a2.464 2.464 0 00.15-.404c.015-.06.03-.115.043-.174l.027-.163.341-1.966L5.902 3.412z" fill="#C81B00"/><path d="M18.497 11.629h-.04a3.54 3.54 0 00-.392-.147h-.067a3.12 3.12 0 00-.369-.091h-.082a2.155 2.155 0 00-.232-.036.327.327 0 01-.255-.174l-4.53-8.852A3.552 3.552 0 0011.104.85 3.506 3.506 0 009.11.414h-.023c-.106.009-.21.023-.314.044h-.028a3.08 3.08 0 00-.318.075l-.094.024L8.21.62l-.196.068a3.823 3.823 0 00-.287.139H7.7c-.392.216-.74.505-1.025.852v.024c-.047.055-.09.113-.13.174L6.44 2l-.044.071a3.59 3.59 0 00-.282 3.243c.046.122.1.241.16.357l2.038 3.964a.328.328 0 01-.117.424l-.075.06a3.47 3.47 0 00-.302.205l-.079.06c-.027.024-.051.055-.078.083-.083.08-.162.165-.236.254-.024.024-.051.047-.075.075-.031.036-.05.075-.078.111l-.169.25c0 .031-.04.055-.059.087v.02l-.023.055c-.07.127-.131.26-.181.397l-.024.043v.02a.242.242 0 01-.02.048.313.313 0 01-.227.202l-.255.08-.102.039-.11.04c-.122.047-.24.098-.357.158-.118.06-.197.111-.291.17l-.106.076-.161.119-.126.11c-.039.036-.082.068-.117.104-.036.035-.09.09-.134.138l-.09.096-.126.158-.07.091c-.044.06-.079.12-.118.179l-.055.087c-.028.044-.051.091-.075.135a.329.329 0 01-.027.051c0 .028-.032.056-.044.088a1.192 1.192 0 00-.07.162v.024l-.036.08-.058.074a.314.314 0 01-.228.203c-.087.023-.173.055-.26.083l-.117.043-.114.044c-.134.05-.266.108-.393.174a3.56 3.56 0 00-.714.524l-.04.035-.156.167-.09.107a1.28 1.28 0 00-.091.115c-.047.063-.094.123-.137.19l-.032.052a3.596 3.596 0 00-.498 2.624c.056.273.143.54.259.793a.346.346 0 00.027.067l.032.067.03.068 1.195 2.347.035.063 2.623 5.074c.214.416.507.786.864 1.087.356.3.769.526 1.213.665l2.183.694 1.205 2.334c.272.524.738.918 1.297 1.094a2.191 2.191 0 001.683-.15l.345-.182.047-.02 7.853-4.135a2.23 2.23 0 001.084-1.311 2.255 2.255 0 00-.15-1.701l-1.177-2.284a.304.304 0 01-.028-.226l.726-3.032a4.046 4.046 0 00-.341-2.807l-2.03-3.94a3.55 3.55 0 00-1.649-1.585z" fill="#E82728"/><path d="M14.462 14.65v.004l-.005-.005h.005z" fill="#fff"/><path d="M21.791 26.141l-1.39-2.687a.5.5 0 01-.043-.345l.836-3.473a2.667 2.667 0 00-.223-1.84l-2.038-3.963a2.183 2.183 0 00-1.085-1.005 2.155 2.155 0 00-1.471-.077l-5.069-9.784a2.175 2.175 0 00-1.275-1.038 2.153 2.153 0 00-1.63.156 2.187 2.187 0 00-1.059 1.263 2.211 2.211 0 00.116 1.649l3.067 5.946a2.151 2.151 0 00-1.934.562 2.195 2.195 0 00-.646 1.923 2.147 2.147 0 00-2.026.47 2.208 2.208 0 00-.702 1.976 2.148 2.148 0 00-2.24.692 2.198 2.198 0 00-.309 2.345.791.791 0 00.04.083l1.228 2.378c0 .036.036.068.051.1a.165.165 0 01.02.035l.534 1.039 2.05 3.964c.265.515.723.903 1.272 1.078l2.536.793c.122.04.224.127.283.242l1.374 2.66a.837.837 0 001.139.36l8.245-4.36a.86.86 0 00.35-1.142zM8.171 4.621a1.393 1.393 0 01-.092-1.054c.11-.349.351-.64.673-.81.322-.169.697-.202 1.043-.092.346.11.635.354.802.679L15.67 13.1l-1.57.824-.868.456-.224-.428L8.171 4.62zm1.284 7.226c.322-.17.697-.203 1.043-.094.347.11.636.353.806.677l1.225 2.334-1.963 1.039a.888.888 0 00-.393.396l-.867-1.676-.393-.793a1.39 1.39 0 01.542-1.883zm-2.749 2.442a1.362 1.362 0 011.045-.092c.347.11.636.354.805.678l1.229 2.379.204.396c.126.317.131.67.014.991-.116.32-.347.586-.647.745a1.355 1.355 0 01-1.774-.46l-1.068-2.06-.365-.71a1.4 1.4 0 01-.093-1.054c.108-.35.35-.642.67-.813h-.02zm-2.06 6.687l-.967-1.871-.259-.503a1.398 1.398 0 01-.093-1.057c.109-.351.351-.644.674-.814.323-.17.7-.205 1.047-.095.348.11.638.355.806.681l.26.508.765 1.478.204.397c.028.049.05.1.067.154a1.395 1.395 0 01-.08 1.156c-.14.255-.355.46-.616.584a1.359 1.359 0 01-1.581-.3 1.328 1.328 0 01-.228-.318zm16.419 5.601l-8.245 4.36a.04.04 0 01-.055 0l-1.375-2.66a1.29 1.29 0 00-.753-.637l-2.533-.793a1.37 1.37 0 01-.785-.678l-1.877-3.631c.488.101.996.028 1.437-.206a1.952 1.952 0 00.491-.357 1.98 1.98 0 00.153-.163c.097-.11.18-.23.247-.36.044-.081.084-.165.118-.25a2.26 2.26 0 00.15-.805 2.144 2.144 0 002.015-.267 2.203 2.203 0 00.906-1.837 2.45 2.45 0 001.857.792 3.8 3.8 0 001.77-.483l.358-.19.785-.397.133.258c-.698.725-1.57 2.98-1.707 3.987a.4.4 0 00.19.405.392.392 0 00.147.051.39.39 0 00.247-.04.394.394 0 00.212-.297c.146-.927.994-3.104 1.681-3.726a.397.397 0 00.086-.487l-.18-.353-.275-.535a.396.396 0 00-.385-.219.389.389 0 00-.15.044l-.058.032-1.1.579-.34.182c-.35.194-.732.32-1.128.373h-.121a1.692 1.692 0 01-1.48-.603l-.08-.095c-.462-.567-.576-.904-.553-1.007 0 0 0-.02.043-.04l1.178-.618.833-.428 1.523-.793 1.912-1.007a1.362 1.362 0 011.85.587l2.037 3.94c.2.38.26.818.169 1.237l-.817 3.476c-.075.306-.035.63.11.908l1.39 2.692a.04.04 0 01-.013.053.039.039 0 01-.018.006z" fill="#fff"/></svg><svg fill="none" viewBox="0 0 122 122" id="icon-play" xmlns="http://www.w3.org/2000/svg"><g filter="url(#jfilter0_d)"><path d="M107 52.34c6.667 3.849 6.667 13.471 0 17.32l-61.5 35.507c-6.667 3.849-15-.962-15-8.66V25.493c0-7.698 8.333-12.51 15-8.66L107 52.34z" fill="#E82728"/></g><path d="M101.25 58.835c1.667.962 1.667 3.368 0 4.33L42.75 96.94c-1.667.962-3.75-.24-3.75-2.165v-67.55c0-1.925 2.083-3.127 3.75-2.165l58.5 33.775z" stroke="#fff" stroke-width="3"/><defs><filter id="jfilter0_d" x="30.5" y="15.478" width="81.5" height="95.044" filterUnits="userSpaceOnUse" color-interpolation-filters="sRGB"><feFlood flood-opacity="0" result="BackgroundImageFix"/><feColorMatrix in="SourceAlpha" values="0 0 0 0 0 0 0 0 0 0 0 0 0 0 0 0 0 0 127 0" result="hardAlpha"/><feOffset dy="4"/><feColorMatrix values="0 0 0 0 0.784314 0 0 0 0 0.105882 0 0 0 0 0 0 0 0 1 0"/><feBlend in2="BackgroundImageFix" result="effect1_dropShadow"/><feBlend in="SourceGraphic" in2="effect1_dropShadow" result="shape"/></filter></defs></svg><svg fill="none" viewBox="0 0 26 25" id="icon-twitch" xmlns="http://www.w3.org/2000/svg"><path d="M22.192 2.96H4.805v16.079h4.819v3.366l2.736-2.736h5.086l4.746-4.747V2.96z" fill="#fff"/><path d="M4.02 2.063L2.55 5.816v15.347h5.225v2.773h2.94l2.773-2.773h4.248l5.713-5.713V2.062H4.021zM21.492 14.47l-3.266 3.266H13l-2.773 2.774v-2.774h-4.41V4.021h15.674V14.47zm-3.266-6.695v5.708h-1.958V7.775h1.958zm-5.225 0v5.708h-1.958V7.775H13z" fill="#9147FF"/></svg><svg fill="none" viewBox="0 0 22 23" id="icon-window" xmlns="http://www.w3.org/2000/svg"><path d="M.063 3.908l8.964-1.235v8.662H.063V3.908zm0 15.85l8.964 1.235V12.44H.063v7.319zm9.95 1.367l11.925 1.645V12.438H10.014v8.687zm0-18.584v8.794h11.925V.895L10.014 2.542z" fill="#fff"/></svg><svg fill="none" viewBox="0 0 25 25" id="icon-youtube" xmlns="http://www.w3.org/2000/svg"><path fill="#fff" d="M6.64 7.29h13.464v10.801H6.64z"/><path d="M24.208 7.108a2.978 2.978 0 00-2.095-2.11C20.264 4.5 12.852 4.5 12.852 4.5s-7.412 0-9.261.499a2.979 2.979 0 00-2.096 2.109C1 8.968 1 12.85 1 12.85s0 3.882.495 5.743a2.934 2.934 0 002.096 2.075c1.849.499 9.26.499 9.26.499s7.413 0 9.262-.499a2.934 2.934 0 002.095-2.075c.496-1.861.496-5.743.496-5.743s0-3.882-.496-5.742zm-13.78 9.267v-7.05l6.195 3.525-6.195 3.525z" fill="red"/></svg></svg>