<svg width="71" height="23" fill="none" xmlns="http://www.w3.org/2000/svg"><path opacity=".5" fill-rule="evenodd" clip-rule="evenodd" d="M51.384.942C50.254.494 48.464 0 46.248 0c-5.654 0-9.636 3.011-9.66 7.317-.047 3.176 2.85 4.94 5.018 6 2.215 1.082 2.968 1.788 2.968 2.753-.022 1.482-1.79 2.164-3.438 2.164-2.286 0-3.51-.352-5.372-1.176l-.754-.353-.801 4.964c1.342.611 3.816 1.153 6.385 1.177 6.008 0 9.919-2.965 9.965-7.553.023-2.517-1.507-4.446-4.806-6.023-2.002-1.011-3.229-1.694-3.229-2.73.024-.94 1.038-1.904 3.298-1.904 1.862-.048 3.23.4 4.265.846l.518.235.779-4.775zM30.628 22.517h-5.726L28.485.4h5.725l-3.58 22.116zM61.28 8.494s-1.814 4.917-2.286 6.188h4.76c-.236-1.106-1.32-6.4-1.32-6.4l-.4-1.905c-.169.49-.413 1.165-.577 1.62-.111.309-.186.516-.177.497zm.353-8.093h4.429l4.62 22.115H65.38s-.52-2.54-.684-3.317h-7.35l-1.202 3.317h-6.008l8.505-20.28C59.229.801 60.267.401 61.632.401zm-41.512 0l-5.607 15.08-.613-3.058v-.003L11.897 2.26C11.568.848 10.555.448 9.306.401H.094L0 .848c2.247.574 4.256 1.4 6.017 2.429l5.103 19.216h6.055l9-22.092H20.12z" fill="#fff"/></svg>